<svg xmlns="http://www.w3.org/2000/svg" xmlns:xlink="http://www.w3.org/1999/xlink" width="760.262" height="538.002" viewBox="0 0 760.262 538.002">
  <defs>
    <style>.a{fill:url(#a);}.b{opacity:0.481;fill:url(#b);}.c{opacity:0.5;fill:url(#c);}.d{fill:#151515;}.e{fill:rgba(255,255,255,0.23);}.f{fill:#fff;}.g{fill:#fed402;}</style>
    <linearGradient id="a" x1="0.5" x2="0.512" y2="0.395" gradientUnits="objectBoundingBox">
      <stop offset="0" stop-color="#fed402"/>
      <stop offset="0.23" stop-color="#fe4517"/>
      <stop offset="0.453" stop-color="#e00"/>
      <stop offset="1"/>
    </linearGradient>
    <linearGradient id="b" x1="0.5" x2="0.5" y2="0.48" gradientUnits="objectBoundingBox">
      <stop offset="0" stop-color="#fed402"/>
      <stop offset="0.23" stop-color="#fe4517"/>
      <stop offset="0.453" stop-color="#e00"/>
      <stop offset="1" stop-color="#7f230c"/>
    </linearGradient>
    <linearGradient id="c" x2="0.513" y2="0.526" xlink:href="#b"/>
  </defs>
  <g transform="translate(-814 -633)">
    <path class="a" d="M-5970-12400.5a79.5,79.5,0,0,1,79.5-79.5,79.628,79.628,0,0,1,20.153,2.577A40.02,40.02,0,0,1-5832-12506a39.875,39.875,0,0,1,28.467,11.9,94.186,94.186,0,0,1,66.033-26.9,94.084,94.084,0,0,1,56.124,18.464A39.829,39.829,0,0,1-5663-12507a39.871,39.871,0,0,1,27.726,11.168A79.192,79.192,0,0,1-5583.5-12515a79.5,79.5,0,0,1,79.5,79.5,79.5,79.5,0,0,1-79.5,79.5,79.424,79.424,0,0,1-66.2-35.475,94.531,94.531,0,0,1-87.8,59.473,94.409,94.409,0,0,1-78.219-41.454A79.536,79.536,0,0,1-5890.5-12321,79.5,79.5,0,0,1-5970-12400.5Z" transform="translate(6897.001 13492)"/>
    <g transform="translate(-387.999 3)">
      <path class="b" d="M-5408.93-12350.016a99.371,99.371,0,0,1-76.7,36.093,99.5,99.5,0,0,1-82.968-44.518,118.468,118.468,0,0,1-110.026,74.634,118.269,118.269,0,0,1-98.025-52.024,99.674,99.674,0,0,1-93.718,65.832,99.7,99.7,0,0,1-99.632-99.773,99.7,99.7,0,0,1,99.632-99.772,99.72,99.72,0,0,1,25.258,3.233,50.157,50.157,0,0,1,48.057-35.864,49.942,49.942,0,0,1,35.674,14.934,117.952,117.952,0,0,1,82.755-33.759,117.8,117.8,0,0,1,70.333,23.171,49.855,49.855,0,0,1,23.029-5.6,49.932,49.932,0,0,1,34.748,14.017,99.163,99.163,0,0,1,64.883-24.056,99.344,99.344,0,0,1,75.374,34.521,49.846,49.846,0,0,1,24.2-6.229,50.162,50.162,0,0,1,48.042,35.816,99.493,99.493,0,0,1,28.644-4.186,99.7,99.7,0,0,1,99.632,99.773,99.7,99.7,0,0,1-99.632,99.773A99.7,99.7,0,0,1-5408.93-12350.016Z" transform="translate(7172 13422)"/>
      <path class="c" d="M-5479.97-12376.245a86.316,86.316,0,0,1-69.523,35.094,86.37,86.37,0,0,1-72.031-38.663,102.851,102.851,0,0,1-95.52,64.823,102.666,102.666,0,0,1-85.1-45.185A86.537,86.537,0,0,1-5883.5-12303a86.576,86.576,0,0,1-86.5-86.654,86.578,86.578,0,0,1,86.5-86.656,86.441,86.441,0,0,1,21.927,2.809,43.547,43.547,0,0,1,41.718-31.149,43.348,43.348,0,0,1,30.972,12.97,102.376,102.376,0,0,1,71.842-29.319,102.245,102.245,0,0,1,61.062,20.125,43.282,43.282,0,0,1,19.992-4.863,43.328,43.328,0,0,1,30.166,12.174,86.073,86.073,0,0,1,56.331-20.894,86.2,86.2,0,0,1,64.467,28.881,43.252,43.252,0,0,1,22.168-6.073,43.485,43.485,0,0,1,37.285,21.1,86.135,86.135,0,0,1,31.068-5.759,86.578,86.578,0,0,1,86.5,86.656,86.576,86.576,0,0,1-86.5,86.654A86.564,86.564,0,0,1-5479.97-12376.245Z" transform="translate(7224 13471)"/>
      <g transform="translate(1277 65)">
        <path class="d" d="M8145.227,13445.5l83.074-59.984-30.066-43.457Z" transform="translate(-7962 -12510)"/>
        <path class="d" d="M8228.3,13445.5l-83.074-59.984,30.066-43.457Z" transform="translate(-7855 -12510)"/>
        <g transform="translate(1 5)">
          <path d="M74.309-75.976S152.3-37.514,153.487,51.3s-36,197.934-79.179,197.934S-.09,139.174-.513,50.28,74.309-75.976,74.309-75.976Z" transform="translate(202 681.028)"/>
          <path class="e" d="M76,69.036C46.645,184.728,86.7,272.472,71.269,272.472c-3.76,0-16.925-1.522-27.482-14.361-13.528-13.74-30.512-47.379-33.519-71.359C-5.909,144.727-7.345,91.5-4.038,51.71-4.46-34.978,105.355-46.656,76,69.036Z" transform="translate(207 658.028)"/>
          <g transform="translate(0 5)">
            <circle class="f" cx="25.5" cy="25.5" r="25.5" transform="translate(253 684)"/>
          </g>
          <rect width="4" height="40" transform="translate(274 568)"/>
          <circle cx="5" cy="5" r="5" transform="translate(271 560)"/>
          <path class="g" d="M0,0S23.96,5.436,45.96,5.436A181.4,181.4,0,0,0,88,0l7.442,9.978s-24.66,5.03-50.148,4.784S-6.508,9-6.508,9Z" transform="translate(233 641)"/>
          <path class="g" d="M0,0S23.96,5.436,45.96,5.436A181.4,181.4,0,0,0,88,0l7.442,9.978s-24.66,5.03-50.148,4.784S-6.508,9-6.508,9Z" transform="translate(233 641)"/>
          <path class="g" d="M-5.364-.366s32.15,5.8,56.27,5.8S103.644.741,103.644.741L100.2,9.869a236.024,236.024,0,0,1-50.023,4.893A280.974,280.974,0,0,1-1.572,9.273Z" transform="translate(228.16 865)"/>
          <path class="g" d="M-6.115.806s26.855,4.63,46.385,4.63S83.958,1.759,83.958,1.759l-4.62,8.434a154.888,154.888,0,0,1-39.658,4.569,172.791,172.791,0,0,1-41.5-5.729Z" transform="translate(238.158 887)"/>
        </g>
      </g>
    </g>
  </g>
</svg>
