<?xml version="1.0" encoding="UTF-8" standalone="no"?>
<svg
   xmlns:dc="http://purl.org/dc/elements/1.1/"
   xmlns:cc="http://creativecommons.org/ns#"
   xmlns:rdf="http://www.w3.org/1999/02/22-rdf-syntax-ns#"
   xmlns:svg="http://www.w3.org/2000/svg"
   xmlns="http://www.w3.org/2000/svg"
   xmlns:xlink="http://www.w3.org/1999/xlink"
   xmlns:sodipodi="http://sodipodi.sourceforge.net/DTD/sodipodi-0.dtd"
   xmlns:inkscape="http://www.inkscape.org/namespaces/inkscape"
   width="160"
   height="311.88016"
   viewBox="0 0 159.99999 311.88015"
   version="1.1"
   id="svg63"
   sodipodi:docname="rocket.svg"
   inkscape:version="1.0.2 (e86c870879, 2021-01-15)">
  <metadata
     id="metadata67">
    <rdf:RDF>
      <cc:Work
         rdf:about="">
        <dc:format>image/svg+xml</dc:format>
        <dc:type
           rdf:resource="http://purl.org/dc/dcmitype/StillImage" />
      </cc:Work>
    </rdf:RDF>
  </metadata>
  <sodipodi:namedview
     pagecolor="#ffffff"
     bordercolor="#666666"
     borderopacity="1"
     objecttolerance="10"
     gridtolerance="10"
     guidetolerance="10"
     inkscape:pageopacity="0"
     inkscape:pageshadow="2"
     inkscape:window-width="1920"
     inkscape:window-height="1025"
     id="namedview65"
     showgrid="false"
     inkscape:zoom="1.4572436"
     inkscape:cx="121.90301"
     inkscape:cy="269.75576"
     inkscape:window-x="0"
     inkscape:window-y="0"
     inkscape:window-maximized="1"
     inkscape:current-layer="svg63"
     inkscape:document-rotation="0" />
  <defs
     id="defs23">
    <style
       id="style2">.a{fill:url(#a);}.b{opacity:0.481;fill:url(#b);}.c{opacity:0.5;fill:url(#c);}.d{fill:#151515;}.e{fill:rgba(255,255,255,0.23);}.f{fill:#fff;}.g{fill:#fed402;}</style>
    <linearGradient
       id="a"
       x1="-3758.4348"
       x2="-3754.7712"
       y2="-18991.883"
       gradientUnits="userSpaceOnUse"
       gradientTransform="matrix(1.5264333,0,0,0.65512197,6083.001,12859)"
       y1="-19112.473">
      <stop
         offset="0"
         stop-color="#fed402"
         id="stop4" />
      <stop
         offset="0.23"
         stop-color="#fe4517"
         id="stop6" />
      <stop
         offset="0.453"
         stop-color="#e00"
         id="stop8" />
      <stop
         offset="1"
         id="stop10" />
    </linearGradient>
    <linearGradient
       id="b"
       x1="0.5"
       x2="0.5"
       y2="0.47999999"
       gradientUnits="objectBoundingBox">
      <stop
         offset="0"
         stop-color="#fed402"
         id="stop13" />
      <stop
         offset="0.23"
         stop-color="#fe4517"
         id="stop15" />
      <stop
         offset="0.453"
         stop-color="#e00"
         id="stop17" />
      <stop
         offset="1"
         stop-color="#7f230c"
         id="stop19" />
    </linearGradient>
    <linearGradient
       id="c"
       x2="-3231.0215"
       y2="-21619.336"
       xlink:href="#b"
       gradientTransform="matrix(1.7426052,0,0,0.57385344,6022.001,12841)"
       x1="-3425.905"
       y1="-21819.158"
       gradientUnits="userSpaceOnUse" />
  </defs>
  <g
     transform="matrix(0.84178184,0,0,0.84178184,-154.23716,-475.60674)"
     id="g57">
    <path
       class="d"
       d="m 8145.227,13445.5 83.074,-59.984 -30.066,-43.457 z"
       transform="translate(-7962,-12510)"
       id="path31" />
    <path
       class="d"
       d="m 8228.3,13445.5 -83.074,-59.984 30.066,-43.457 z"
       transform="translate(-7855,-12510)"
       id="path33" />
    <g
       transform="translate(1,5)"
       id="g55">
      <path
         d="m 74.309,-75.976 c 0,0 77.991,38.462 79.178,127.276 1.187,88.814 -36,197.934 -79.179,197.934 C 31.129,249.234 -0.09,139.174 -0.513,50.28 -0.936,-38.614 74.309,-75.976 74.309,-75.976 Z"
         transform="translate(202,681.028)"
         id="path35" />
      <path
         class="e"
         d="m 76,69.036 c -29.355,115.692 10.7,203.436 -4.731,203.436 -3.76,0 -16.925,-1.522 -27.482,-14.361 C 30.259,244.371 13.275,210.732 10.268,186.752 -5.909,144.727 -7.345,91.5 -4.038,51.71 -4.46,-34.978 105.355,-46.656 76,69.036 Z"
         transform="translate(207,658.028)"
         id="path37" />
      <g
         transform="translate(0,5)"
         id="g41">
        <circle
           class="f"
           cx="25.5"
           cy="25.5"
           r="25.5"
           transform="translate(253,684)"
           id="circle39" />
      </g>
      <rect
         width="4"
         height="40"
         transform="translate(274,568)"
         id="rect43"
         x="0"
         y="0" />
      <circle
         cx="5"
         cy="5"
         r="5"
         transform="translate(271,560)"
         id="circle45" />
      <path
         class="g"
         d="M 0,0 C 0,0 23.96,5.436 45.96,5.436 A 181.4,181.4 0 0 0 88,0 l 7.442,9.978 c 0,0 -24.66,5.03 -50.148,4.784 C 19.806,14.516 -6.508,9 -6.508,9 Z"
         transform="translate(233,641)"
         id="path47" />
      <path
         class="g"
         d="M 0,0 C 0,0 23.96,5.436 45.96,5.436 A 181.4,181.4 0 0 0 88,0 l 7.442,9.978 c 0,0 -24.66,5.03 -50.148,4.784 C 19.806,14.516 -6.508,9 -6.508,9 Z"
         transform="translate(233,641)"
         id="path49" />
      <path
         class="g"
         d="m -5.364,-0.366 c 0,0 32.15,5.8 56.27,5.8 24.12,0 52.738,-4.693 52.738,-4.693 L 100.2,9.869 A 236.024,236.024 0 0 1 50.177,14.762 280.974,280.974 0 0 1 -1.572,9.273 Z"
         transform="translate(228.16,865)"
         id="path51" />
      <path
         class="g"
         d="m -6.115,0.806 c 0,0 26.855,4.63 46.385,4.63 19.53,0 43.688,-3.677 43.688,-3.677 l -4.62,8.434 A 154.888,154.888 0 0 1 39.68,14.762 172.791,172.791 0 0 1 -1.82,9.033 Z"
         transform="translate(238.158,887)"
         id="path53" />
    </g>
  </g>
</svg>
