<?xml version="1.0" encoding="UTF-8"?>
<svg width="308px" height="71px" viewBox="0 0 308 71" version="1.1" xmlns="http://www.w3.org/2000/svg" xmlns:xlink="http://www.w3.org/1999/xlink">
    <defs>
        <filter x="-15.8%" y="-12.0%" width="131.6%" height="124.0%" filterUnits="objectBoundingBox" id="filter-1">
            <feGaussianBlur stdDeviation="2" in="SourceGraphic"></feGaussianBlur>
        </filter>
        <filter x="-24.0%" y="-15.8%" width="148.0%" height="131.6%" filterUnits="objectBoundingBox" id="filter-2">
            <feGaussianBlur stdDeviation="2" in="SourceGraphic"></feGaussianBlur>
        </filter>
    </defs>
    <g id="Page-1" stroke="none" stroke-width="1" fill="none" fill-rule="evenodd">
        <g id="logo" transform="translate(235.117021, 0.000000)">
            <g id="fire" transform="translate(0.000000, 16.500000)">
                <polygon id="Triangle" fill="#E78A25" filter="url(#filter-1)" transform="translate(25.882979, 19.500000) rotate(-90.000000) translate(-25.882979, -19.500000) " points="25.8829787 -5.5 44.8829787 44.5 6.88297872 44.5"></polygon>
                <polygon id="Triangle" fill="#F3D44B" filter="url(#filter-2)" transform="translate(32.382979, 19.500000) rotate(-90.000000) translate(-32.382979, -19.500000) " points="32.3829787 0.5 44.8829787 38.5 19.8829787 38.5"></polygon>
            </g>
            <g id="arrow" transform="translate(36.382979, 35.500000) rotate(-45.000000) translate(-36.382979, -35.500000) translate(11.882979, 11.000000)" fill="#FFFFFF">
                <rect id="Rectangle" x="34" y="0" width="15" height="49"></rect>
                <rect id="Rectangle" transform="translate(24.500000, 41.500000) scale(-1, 1) rotate(-90.000000) translate(-24.500000, -41.500000) " x="17" y="17" width="15" height="49"></rect>
            </g>
        </g>
        <text id="SPAship" font-family="RedHatDisplay-Bold, Red Hat Display, Arial" font-size="45" font-weight="bold" letter-spacing="7.875" fill="#FFFFFF">
            <tspan x="7.805" y="47">SPAship</tspan>
        </text>
    </g>
</svg>