<svg xmlns="http://www.w3.org/2000/svg" width="193" height="124" viewBox="0 0 193 124"><defs><style>.a,.c,.d{fill:#fff;}.a{stroke:#333;}.b{fill:rgba(255,255,255,0);}.b,.d{stroke:#000;}.d{stroke-width:2px;}.e,.g{stroke:none;}.f{fill:none;}.g{fill:#fdb716;}</style></defs><g transform="translate(-795 -1228)"><g transform="translate(0.5 0.336)"><g class="a" transform="translate(794.5 1227.664)"><rect class="e" width="193" height="124" rx="4"/><rect class="f" x="0.5" y="0.5" width="192" height="123" rx="3.5"/></g><g class="b" transform="translate(951.5 1235.664)"><circle class="e" cx="3" cy="3" r="3"/><circle class="f" cx="3" cy="3" r="2.5"/></g><g class="b" transform="translate(961.5 1235.664)"><circle class="e" cx="3" cy="3" r="3"/><circle class="f" cx="3" cy="3" r="2.5"/></g><g class="b" transform="translate(971.5 1235.664)"><circle class="e" cx="3" cy="3" r="3"/><circle class="f" cx="3" cy="3" r="2.5"/></g></g><g transform="translate(142 -133)"><g class="c" transform="translate(721 1385)"><path class="e" d="M 38.37551879882812 57.88478851318359 C 38.00392913818359 57.88480758666992 37.30241012573242 57.77695846557617 36.77912902832031 57.05437850952148 L 35.23971176147461 54.92863845825195 C 34.47853851318359 53.87758636474609 33.29772186279297 53.27477645874023 32.0000114440918 53.27477645874023 C 30.70228958129883 53.27477645874023 29.52146911621094 53.87758636474609 28.76030921936035 54.92862701416016 L 27.22086906433105 57.05438995361328 C 26.69767951965332 57.77683639526367 25.99603080749512 57.88475799560547 25.62434959411621 57.88478851318359 C 24.7166690826416 57.88486862182617 23.73386001586914 57.26745986938477 23.61166000366211 56.08729934692383 L 23.34133911132812 53.47662734985352 C 23.1294002532959 51.42970657348633 21.41872978210449 49.88612747192383 19.36218070983887 49.88612747192383 C 18.79982948303223 49.88612747192383 18.25069999694824 50.00415802001953 17.73003005981445 50.2369384765625 L 15.33397006988525 51.30816650390625 C 15.06070041656494 51.43034744262695 14.78092002868652 51.4923095703125 14.50242042541504 51.49233627319336 C 13.8436803817749 51.49240875244141 13.20145034790039 51.13307952880859 12.82637023925781 50.55458831787109 C 12.60999011993408 50.22086715698242 12.30480003356934 49.53176879882812 12.69184970855713 48.66604995727539 L 13.76307964324951 46.26997756958008 C 14.2927303314209 45.08527755737305 14.22437000274658 43.76124954223633 13.57551002502441 42.63739776611328 C 12.92665004730225 41.5135383605957 11.81420040130615 40.79231643676758 10.52338027954102 40.65866851806641 L 7.912710189819336 40.38834762573242 C 6.902969837188721 40.28379821777344 6.359119892120361 39.55954742431641 6.186850070953369 38.91661834716797 C 6.014579772949219 38.27369689941406 6.123439788818359 37.37455749511719 6.945630073547363 36.77913665771484 L 9.071379661560059 35.23969650268555 C 10.12242031097412 34.47854995727539 10.72523021697998 33.2977180480957 10.72523021697998 32.00000762939453 C 10.7252197265625 30.7022876739502 10.12242031097412 29.5214672088623 9.071359634399414 28.76031875610352 L 6.945630073547363 27.22088813781738 C 6.123439788818359 26.62546730041504 6.014579772949219 25.726318359375 6.186850070953369 25.08339881896973 C 6.359119892120361 24.44046783447266 6.902969837188721 23.71621894836426 7.912710189819336 23.61166763305664 L 10.52336978912354 23.34134864807129 C 11.81418037414551 23.20769882202148 12.92663955688477 22.48647880554199 13.57549953460693 21.36262893676758 C 14.22436046600342 20.23876762390137 14.29271984100342 18.91473770141602 13.76307010650635 17.73002815246582 L 12.69184017181396 15.33396816253662 C 12.30488014221191 14.46843814849854 12.61003017425537 13.77939796447754 12.82635974884033 13.44570827484131 C 13.2014799118042 12.86710834503174 13.84374046325684 12.50767803192139 14.50251007080078 12.50767803192139 C 14.78087043762207 12.50767803192139 15.06060981750488 12.5696382522583 15.33395004272461 12.6918478012085 L 17.73002052307129 13.76307773590088 C 18.25069046020508 13.99584770202637 18.79981994628906 14.11387825012207 19.36215972900391 14.11387825012207 C 21.41872024536133 14.11387825012207 23.12939071655273 12.57029819488525 23.34132957458496 10.52337837219238 L 23.61165046691895 7.912708282470703 C 23.73384094238281 6.732647895812988 24.71669960021973 6.115218162536621 25.62442970275879 6.115218162536621 C 25.99604988098145 6.115218162536621 26.6976203918457 6.223098278045654 27.22085952758789 6.945618152618408 L 28.76029968261719 9.071377754211426 C 29.52145957946777 10.12241840362549 30.70228004455566 10.72522830963135 31.99999046325684 10.72522830963135 C 33.29771041870117 10.72522830963135 34.47853088378906 10.12241840362549 35.23968124389648 9.071377754211426 L 36.77912902832031 6.945618152618408 C 37.3023796081543 6.223088264465332 38.00394821166992 6.115208148956299 38.37556838989258 6.115208148956299 C 39.28330993652344 6.115208148956299 40.26615905761719 6.732627868652344 40.38835144042969 7.912698268890381 L 40.65866851806641 10.5233678817749 C 40.87060928344727 12.57028770446777 42.58127975463867 14.11386775970459 44.6378288269043 14.11386775970459 C 45.20018005371094 14.11386775970459 45.74930953979492 13.9958381652832 46.26998138427734 13.76306819915771 L 48.66604995727539 12.69183826446533 C 48.93938827514648 12.56962776184082 49.21913146972656 12.50766849517822 49.49748992919922 12.50766849517822 C 50.15634918212891 12.50766849517822 50.79864883422852 12.86706829071045 51.17374038696289 13.44562816619873 C 51.39006042480469 13.77929782867432 51.6951789855957 14.46832847595215 51.30817031860352 15.33395767211914 L 50.23693084716797 17.73001861572266 C 49.70727920532227 18.91472816467285 49.77563858032227 20.2387580871582 50.42449951171875 21.36261749267578 C 51.07336044311523 22.4864673614502 52.18582153320312 23.20768737792969 53.47663116455078 23.34133720397949 L 56.08729934692383 23.61165809631348 C 57.09703826904297 23.71620750427246 57.64088821411133 24.44045829772949 57.81315994262695 25.08338737487793 C 57.98543167114258 25.72630882263184 57.87657165527344 26.62544822692871 57.05438995361328 27.22086715698242 L 54.92863845825195 28.76030731201172 C 53.87759017944336 29.52145767211914 53.2747917175293 30.70227813720703 53.2747802734375 31.99999809265137 C 53.2747802734375 33.29770660400391 53.87759017944336 34.47853851318359 54.92863082885742 35.23968887329102 L 57.05437850952148 36.77912902832031 C 57.87657165527344 37.37454986572266 57.98543167114258 38.27368927001953 57.81315994262695 38.91660690307617 C 57.64088821411133 39.55953979492188 57.09703826904297 40.28378677368164 56.08729934692383 40.38833999633789 L 53.47661972045898 40.65866851806641 C 52.18582153320312 40.79231643676758 51.07337188720703 41.51352691650391 50.42451095581055 42.63737869262695 C 49.77563858032227 43.76122665405273 49.70727157592773 45.08526992797852 50.23693084716797 46.26997756958008 L 51.30817031860352 48.66603851318359 C 51.69511032104492 49.53151702880859 51.38999176025391 50.22051620483398 51.17367935180664 50.55419921875 C 50.79856872558594 51.13282775878906 50.15626907348633 51.4922981262207 49.49744033813477 51.49232864379883 C 49.21913909912109 51.49234771728516 48.93941879272461 51.43037796020508 48.66604995727539 51.30815887451172 L 46.26998138427734 50.2369270324707 C 45.74930953979492 50.00415802001953 45.20018005371094 49.88612747192383 44.63784027099609 49.88612747192383 C 42.58129119873047 49.88612747192383 40.87060928344727 51.42970657348633 40.65866088867188 53.47661972045898 L 40.38835144042969 56.08729934692383 C 40.26617050170898 57.26729965209961 39.28327941894531 57.88473892211914 38.37551879882812 57.88478851318359 Z"/><path class="g" d="M 38.37557220458984 7.115207672119141 C 38.05403137207031 7.115207672119141 37.78941345214844 7.255489349365234 37.58906173706055 7.532146453857422 L 36.04960250854492 9.657917022705078 C 35.09815216064453 10.97171783447266 33.62213134765625 11.72522735595703 31.99999237060547 11.72522735595703 C 30.37785339355469 11.72522735595703 28.90183258056641 10.97171783447266 27.95037078857422 9.657909393310547 L 26.41094207763672 7.532169342041016 C 26.2105712890625 7.255477905273438 25.94598007202148 7.115196228027344 25.62453079223633 7.115219116210938 C 25.30461120605469 7.115238189697266 24.68008041381836 7.303459167480469 24.60633087158203 8.015708923339844 L 24.33601379394531 10.62636947631836 C 24.20557022094727 11.88616943359375 23.61132049560547 13.03762817382812 22.6627311706543 13.86864852905273 C 21.74612045288086 14.67164993286133 20.5739631652832 15.11387634277344 19.36216354370117 15.11387634277344 C 18.65826034545898 15.11387634277344 17.9718132019043 14.96655654907227 17.32188034057617 14.67598724365234 L 14.92582321166992 13.60476684570312 C 14.78170013427734 13.54033660888672 14.63931274414062 13.50766754150391 14.50260162353516 13.5076789855957 C 14.17897033691406 13.50769805908203 13.85818099975586 13.69242858886719 13.66541290283203 13.98977661132812 C 13.47724151611328 14.28004837036133 13.45683288574219 14.59497833251953 13.60474014282227 14.92582702636719 L 14.67597198486328 17.32187652587891 C 15.33805084228516 18.80275726318359 15.25260162353516 20.45779800415039 14.44153213500977 21.86261749267578 C 13.63046264648438 23.26743698120117 12.23988342285156 24.16896820068359 10.62637329101562 24.33602905273438 L 8.015701293945312 24.60634994506836 C 7.397663116455078 24.67034912109375 7.206340789794922 25.14227676391602 7.15277099609375 25.34220886230469 C 7.099193572998047 25.54214859008789 7.028923034667969 26.04651641845703 7.532161712646484 26.41095733642578 L 9.657901763916016 27.95038986206055 C 10.97171020507812 28.90183639526367 11.72522354125977 30.37786865234375 11.72522354125977 32.00000762939453 C 11.72522354125977 33.62214660644531 10.97171020507812 35.09817886352539 9.657913208007812 36.04961776733398 L 7.532161712646484 37.58906555175781 C 7.0289306640625 37.95349884033203 7.099201202392578 38.45787048339844 7.15277099609375 38.65779876708984 C 7.206340789794922 38.85773849487305 7.397670745849609 39.32966613769531 8.015712738037109 39.39366912841797 L 10.62636184692383 39.66398620605469 C 12.23989105224609 39.83104705810547 13.63046264648438 40.73257827758789 14.44154357910156 42.13739776611328 C 15.25261306762695 43.54221725463867 15.33806228637695 45.19725036621094 14.67599105834961 46.67811584472656 L 13.60476303100586 49.07418823242188 C 13.45680236816406 49.40513610839844 13.47719192504883 49.72012710571289 13.66538238525391 50.0103874206543 C 13.85810089111328 50.30766677856445 14.17888259887695 50.49234008789062 14.50253295898438 50.49234008789062 C 14.63932037353516 50.49234008789062 14.78174209594727 50.45967864990234 14.92582321166992 50.39525604248047 L 17.3219108581543 49.32400894165039 C 17.97182083129883 49.033447265625 18.65826034545898 48.88612747192383 19.3621711730957 48.88612747192383 C 20.57390213012695 48.88612747192383 21.74605178833008 49.32837677001953 22.66269302368164 50.13139724731445 C 23.61132049560547 50.96244812011719 24.20559310913086 52.11389923095703 24.33602142333984 53.37362670898438 L 24.60634231567383 55.98430633544922 C 24.68010330200195 56.69658660888672 25.30455017089844 56.88478851318359 25.62444305419922 56.88478851318359 C 25.94598007202148 56.88478851318359 26.21060180664062 56.7445068359375 26.41095352172852 56.46784973144531 L 27.95038223266602 54.34209823608398 C 28.90183258056641 53.02827835083008 30.37786102294922 52.2747688293457 32 52.2747688293457 C 33.62214279174805 52.2747688293457 35.09817123413086 53.02827835083008 36.04962158203125 54.34209823608398 L 37.58906173706055 56.46784973144531 C 37.78941345214844 56.7445068359375 38.05403137207031 56.88478851318359 38.37557220458984 56.88478851318359 C 38.69546127319336 56.88478851318359 39.31991195678711 56.69658660888672 39.39366149902344 55.98429870605469 L 39.66398239135742 53.37363815307617 C 39.7944221496582 52.11383819580078 40.388671875 50.96237945556641 41.33727264404297 50.1313591003418 C 42.25388336181641 49.3283576965332 43.42604064941406 48.88612747192383 44.63784027099609 48.88612747192383 C 45.34174346923828 48.88612747192383 46.02819061279297 49.033447265625 46.67812347412109 49.32402038574219 L 49.07417297363281 50.39523696899414 C 49.2182731628418 50.45965576171875 49.36069107055664 50.49232864379883 49.49748229980469 50.49232864379883 C 49.82104110717773 50.49232864379883 50.14179229736328 50.3076286315918 50.33455276489258 50.01029968261719 C 50.52275085449219 49.71999740600586 50.54317092895508 49.40504837036133 50.3952522277832 49.07417678833008 L 49.32402038574219 46.67811584472656 C 48.66195297241211 45.19723892211914 48.74740219116211 43.54219818115234 49.5584831237793 42.13737869262695 C 50.36955261230469 40.73256683349609 51.76012420654297 39.83103942871094 53.37363052368164 39.66397857666016 L 55.98429107666016 39.39365768432617 C 56.60233306884766 39.32965850830078 56.79366302490234 38.85772705078125 56.84723281860352 38.65778732299805 C 56.90080261230469 38.45785903930664 56.97107315063477 37.95348739624023 56.46784210205078 37.58905792236328 L 54.34209060668945 36.04960632324219 C 53.02828216552734 35.09816741943359 52.2747802734375 33.62214660644531 52.2747802734375 32.00000762939453 C 52.2747802734375 30.37785720825195 53.02828979492188 28.90182876586914 54.34209060668945 27.95038986206055 L 56.46784210205078 26.41093826293945 C 56.97107315063477 26.0465087890625 56.90080261230469 25.54213714599609 56.84723281860352 25.34220886230469 C 56.79366302490234 25.14226913452148 56.60233306884766 24.67033767700195 55.98430252075195 24.60633850097656 L 53.37363052368164 24.33601760864258 C 51.76012420654297 24.1689567565918 50.36955261230469 23.26742935180664 49.5584831237793 21.86261749267578 C 48.74740219116211 20.45779800415039 48.66195297241211 18.80275726318359 49.32402038574219 17.32187652587891 L 50.3952522277832 14.92581939697266 C 50.54323196411133 14.59481811523438 50.52282333374023 14.27977752685547 50.3345832824707 13.98945999145508 C 50.14187240600586 13.6922492980957 49.82118988037109 13.50763702392578 49.4976806640625 13.50766754150391 C 49.36072158813477 13.5076789855957 49.21824264526367 13.54034805297852 49.07418060302734 13.6047477722168 L 46.6781005859375 14.67598724365234 C 46.02819061279297 14.96654891967773 45.34175109863281 15.11386871337891 44.63784027099609 15.11386871337891 C 43.42610931396484 15.11386871337891 42.25395965576172 14.6716194152832 41.33732223510742 13.86859893798828 C 40.38869476318359 13.03754806518555 39.7944221496582 11.8861083984375 39.66398239135742 10.62636947631836 L 39.39366149902344 8.015689849853516 C 39.31991195678711 7.303409576416016 38.69546127319336 7.115207672119141 38.37557220458984 7.115207672119141 M 38.37557220458984 5.115207672119141 C 39.80476379394531 5.115207672119141 41.20813751220703 6.120716094970703 41.38302230834961 7.809707641601562 L 41.65334320068359 10.42037963867188 C 41.81822204589844 12.01265335083008 43.16532135009766 13.11386871337891 44.63784027099609 13.11386871337891 C 45.0436897277832 13.11386871337891 45.45905303955078 13.03022384643555 45.86183166503906 12.85014724731445 L 48.25789260864258 11.7789192199707 C 48.67507934570312 11.59240341186523 49.09420013427734 11.50770568847656 49.49748611450195 11.50766754150391 C 51.52431106567383 11.5074577331543 53.15846633911133 13.64542770385742 52.2210807800293 15.74210739135742 L 51.14985275268555 18.13816833496094 C 50.31642150878906 20.00233840942383 51.54849243164062 22.13634872436523 53.57962036132812 22.34665679931641 L 56.19029235839844 22.61697769165039 C 58.92931365966797 22.90058898925781 59.87117004394531 26.41566848754883 57.64091110229492 28.03078842163086 L 55.51517105102539 29.57022857666016 C 53.86132049560547 30.76792907714844 53.86131286621094 33.23207092285156 55.51515960693359 34.42976760864258 L 57.64091110229492 35.96920776367188 C 59.87117004394531 37.58432769775391 58.92931365966797 41.09940719604492 56.19028091430664 41.38301849365234 L 53.57962036132812 41.65333557128906 C 51.54849243164062 41.8636474609375 50.31642150878906 43.99765777587891 51.14985275268555 45.8618278503418 L 52.2210807800293 48.25788879394531 C 53.15839767456055 50.35441589355469 51.52410507202148 52.49232864379883 49.49748611450195 52.49232864379883 C 49.09406280517578 52.49232864379883 48.67523193359375 52.40766143798828 48.25789260864258 52.22107696533203 L 45.86183166503906 51.14984893798828 C 45.45916748046875 50.96982574462891 45.0435791015625 50.88612747192383 44.63784027099609 50.88612747192383 C 43.16518402099609 50.88612747192383 41.81822204589844 51.98722076416016 41.65334320068359 53.57962036132812 L 41.38302230834961 56.19028854370117 C 41.20816040039062 57.87910461425781 39.80461502075195 58.88478851318359 38.37556838989258 58.88478851318359 C 37.48690414428711 58.88478851318359 36.58848571777344 58.49605178833008 35.96921157836914 57.64091873168945 L 34.42977142333984 55.51516723632812 C 33.8309211730957 54.68824005126953 32.91546249389648 54.27477264404297 32 54.27477264404297 C 31.08454132080078 54.27477264404297 30.16908264160156 54.68824005126953 29.57023239135742 55.51516723632812 L 28.03080368041992 57.64091873168945 C 27.41162109375 58.49591445922852 26.51296615600586 58.88478851318359 25.62444305419922 58.88478851318359 C 24.19524765014648 58.88478851318359 22.79186630249023 57.8792724609375 22.61698150634766 56.19028854370117 L 22.34666061401367 53.57962036132812 C 22.18179321289062 51.98734283447266 20.83468627929688 50.88612747192383 19.3621711730957 50.88612747192383 C 18.95632171630859 50.88612747192383 18.54096221923828 50.96977233886719 18.13818359375 51.14984893798828 L 15.74212265014648 52.22108840942383 C 15.32493209838867 52.4076042175293 14.90581512451172 52.49234008789062 14.50252914428711 52.49234008789062 C 12.47570419311523 52.49234008789062 10.84154891967773 50.35457992553711 11.7789306640625 48.25789642333984 L 12.85016250610352 45.8618278503418 C 13.68359375 43.99766540527344 12.45152282714844 41.8636589050293 10.42038345336914 41.65335083007812 L 7.809722900390625 41.38302612304688 C 5.070690155029297 41.09941864013672 4.128833770751953 37.58433532714844 6.359092712402344 35.96921539306641 L 8.484832763671875 34.42977905273438 C 10.13869094848633 33.23207855224609 10.13869094848633 30.76793670654297 8.484832763671875 29.57023620605469 L 6.359092712402344 28.03080749511719 C 4.128822326660156 26.41567993164062 5.070682525634766 22.90059661865234 7.809711456298828 22.61698913574219 L 10.42038345336914 22.3466682434082 C 12.45151138305664 22.13635635375977 13.6835823059082 20.00234985351562 12.85014343261719 18.13817977905273 L 11.77891159057617 15.74211883544922 C 10.84159851074219 13.64558792114258 12.47588348388672 11.50778198242188 14.50250244140625 11.50767517089844 C 14.90592956542969 11.50765609741211 15.32476043701172 11.59234237670898 15.74210357666016 11.77892684936523 L 18.1381721496582 12.85015869140625 C 18.54084014892578 13.03018188476562 18.95642471313477 13.1138801574707 19.36216354370117 13.1138801574707 C 20.83481979370117 13.1138801574707 22.18177032470703 12.01278686523438 22.34665298461914 10.42038726806641 L 22.61697006225586 7.809719085693359 C 22.79183959960938 6.120895385742188 24.19537353515625 5.11529541015625 25.62442016601562 5.115215301513672 C 26.51308059692383 5.115165710449219 27.41150283813477 5.503955841064453 28.03078079223633 6.359088897705078 L 29.57022094726562 8.484836578369141 C 30.16907501220703 9.311763763427734 31.08453750610352 9.725227355957031 31.99999618530273 9.725227355957031 C 32.91545486450195 9.725227355957031 33.83090972900391 9.311763763427734 34.42976379394531 8.484836578369141 L 35.96921157836914 6.359077453613281 C 36.5883903503418 5.504081726074219 37.4870491027832 5.115207672119141 38.37557220458984 5.115207672119141 Z"/></g><g class="d" transform="translate(744 1408)"><circle class="e" cx="9" cy="9" r="9"/><circle class="f" cx="9" cy="9" r="8"/></g><g transform="translate(162 183)"><path d="M20.813,4.148a3,3,0,0,1,4.994,2.068l.061,1.09a3,3,0,0,0,2.826,2.826l1.09.061a3,3,0,0,1,2.068,4.994L31.125,16a3,3,0,0,0,0,4l.727.814a3,3,0,0,1-2.068,4.994l-1.09.061a3,3,0,0,0-2.826,2.826l-.061,1.09a3,3,0,0,1-4.994,2.068L20,31.125a3,3,0,0,0-4,0l-.814.727a3,3,0,0,1-4.994-2.068l-.061-1.09a3,3,0,0,0-2.826-2.826l-1.09-.061a3,3,0,0,1-2.068-4.994L4.875,20a3,3,0,0,0,0-4l-.727-.814a3,3,0,0,1,2.068-4.994l1.09-.061a3,3,0,0,0,2.826-2.826l.061-1.09a3,3,0,0,1,4.994-2.068L16,4.875a3,3,0,0,0,4,0Z" transform="translate(603 1246)"/><g class="d" transform="translate(616 1259)"><circle class="e" cx="5" cy="5" r="5"/><circle class="f" cx="5" cy="5" r="4"/></g></g><g transform="translate(95 135)"><path d="M20.813,4.148a3,3,0,0,1,4.994,2.068l.061,1.09a3,3,0,0,0,2.826,2.826l1.09.061a3,3,0,0,1,2.068,4.994L31.125,16a3,3,0,0,0,0,4l.727.814a3,3,0,0,1-2.068,4.994l-1.09.061a3,3,0,0,0-2.826,2.826l-.061,1.09a3,3,0,0,1-4.994,2.068L20,31.125a3,3,0,0,0-4,0l-.814.727a3,3,0,0,1-4.994-2.068l-.061-1.09a3,3,0,0,0-2.826-2.826l-1.09-.061a3,3,0,0,1-2.068-4.994L4.875,20a3,3,0,0,0,0-4l-.727-.814a3,3,0,0,1,2.068-4.994l1.09-.061a3,3,0,0,0,2.826-2.826l.061-1.09a3,3,0,0,1,4.994-2.068L16,4.875a3,3,0,0,0,4,0Z" transform="translate(603 1246)"/><g class="d" transform="translate(616 1259)"><circle class="e" cx="5" cy="5" r="5"/><circle class="f" cx="5" cy="5" r="4"/></g></g></g></g></svg>
