<svg xmlns="http://www.w3.org/2000/svg" xmlns:xlink="http://www.w3.org/1999/xlink" width="217" height="130" viewBox="0 0 217 130"><defs><style>.a{fill:none;}.b,.e{fill:#fff;}.b{stroke:#333;}.c{fill:rgba(254,212,2,0.9);}.d{fill:rgba(255,255,255,0);}.d,.e{stroke:#000;}.f{clip-path:url(#a);}.g{stroke:none;}</style><clipPath id="a"><rect class="a" width="101" height="87"/></clipPath></defs><g transform="translate(-537.5 -1206.664)"><g transform="translate(-62.5 24.664)"><g class="b" transform="translate(624 1182)"><rect class="g" width="193" height="124" rx="4"/><rect class="a" x="0.5" y="0.5" width="192" height="123" rx="3.5"/></g><rect class="c" width="191" height="18" rx="4" transform="translate(600 1190)"/><g class="d" transform="translate(781 1190)"><circle class="g" cx="3" cy="3" r="3"/><circle class="a" cx="3" cy="3" r="2.5"/></g><g class="d" transform="translate(791 1190)"><circle class="g" cx="3" cy="3" r="3"/><circle class="a" cx="3" cy="3" r="2.5"/></g><g class="d" transform="translate(801 1190)"><circle class="g" cx="3" cy="3" r="3"/><circle class="a" cx="3" cy="3" r="2.5"/></g><g class="e" transform="translate(649 1212)"><rect class="g" width="31" height="89" rx="4"/><rect class="a" x="0.5" y="0.5" width="30" height="88" rx="3.5"/></g><g class="f" transform="translate(690 1212)"><g transform="translate(-690 -1212)"><g class="e" transform="translate(690 1212)"><rect class="g" width="101" height="8" rx="4"/><rect class="a" x="0.5" y="0.5" width="100" height="7" rx="3.5"/></g></g><g transform="translate(-690 -1199)"><g class="e" transform="translate(690 1212)"><rect class="g" width="101" height="8" rx="4"/><rect class="a" x="0.5" y="0.5" width="100" height="7" rx="3.5"/></g></g><g transform="translate(-690 -1186)"><g class="e" transform="translate(690 1212)"><rect class="g" width="101" height="8" rx="4"/><rect class="a" x="0.5" y="0.5" width="100" height="7" rx="3.5"/></g></g><g transform="translate(-690 -1173)"><g class="e" transform="translate(690 1212)"><rect class="g" width="101" height="8" rx="4"/><rect class="a" x="0.5" y="0.5" width="100" height="7" rx="3.5"/></g></g><g transform="translate(-690 -1160)"><g class="e" transform="translate(690 1212)"><rect class="g" width="101" height="8" rx="4"/><rect class="a" x="0.5" y="0.5" width="100" height="7" rx="3.5"/></g></g><g transform="translate(-690 -1147)"><g class="e" transform="translate(690 1212)"><rect class="g" width="101" height="8" rx="4"/><rect class="a" x="0.5" y="0.5" width="100" height="7" rx="3.5"/></g></g><g transform="translate(-690 -1134)"><g class="e" transform="translate(690 1212)"><rect class="g" width="101" height="8" rx="4"/><rect class="a" x="0.5" y="0.5" width="100" height="7" rx="3.5"/></g></g></g><rect class="c" width="191" height="32" rx="4" transform="translate(600 1280)"/></g></g></svg>
