<svg width="51" height="51" viewBox="0 0 51 51" fill="none" xmlns="http://www.w3.org/2000/svg">
<g clip-path="url(#clip0_418_721)">
<path d="M40.5519 21.9895V21.9583C40.5523 19.0453 39.5686 16.2175 37.7605 13.9336C35.9523 11.6497 33.4256 10.0435 30.5902 9.37549C27.7548 8.70751 24.7768 9.01691 22.1393 10.2535C19.5017 11.4901 17.3592 13.5814 16.0592 16.1883C14.6944 16.029 13.3115 16.1502 11.9951 16.5443C10.6788 16.9384 9.45683 17.5971 8.40407 18.4801C7.3513 19.3631 6.48993 20.4518 5.87275 21.6794C5.25556 22.907 4.89556 24.2478 4.81481 25.6195C4.73405 26.9911 4.93425 28.3649 5.40312 29.6564C5.87199 30.948 6.59966 32.1302 7.54154 33.1307C8.48342 34.1311 9.61967 34.9287 10.8807 35.4745C12.1416 36.0203 13.5008 36.3029 14.8749 36.3049H21.2499C21.4847 36.3049 21.7099 36.2116 21.8759 36.0456C22.042 35.8795 22.1353 35.6543 22.1353 35.4195C22.1353 35.1847 22.042 34.9595 21.8759 34.7934C21.7099 34.6274 21.4847 34.5341 21.2499 34.5341H14.8749C13.7139 34.5386 12.5648 34.3001 11.5015 33.8341C10.4382 33.368 9.48411 32.6846 8.70063 31.8279C7.91716 30.9711 7.32159 29.9599 6.95221 28.8593C6.58283 27.7586 6.4478 26.5929 6.55581 25.4369C6.66382 24.281 7.01248 23.1604 7.57937 22.1473C8.14626 21.1341 8.91885 20.2507 9.84749 19.5539C10.7761 18.8572 11.8403 18.3624 12.9715 18.1014C14.1028 17.8404 15.2762 17.8189 16.4162 18.0384C16.6134 18.0759 16.8175 18.0451 16.9949 17.9511C17.1723 17.8571 17.3125 17.7056 17.3923 17.5213C18.4118 15.1661 20.2123 13.2345 22.4901 12.0522C24.768 10.8699 27.3839 10.5091 29.8967 11.0308C32.4095 11.5525 34.6656 12.9248 36.2845 14.9161C37.9035 16.9075 38.7862 19.3962 38.7839 21.9626C38.7839 22.151 38.7698 22.3366 38.757 22.5293L38.7457 22.6879C38.7309 22.9163 38.8051 23.1415 38.9528 23.3163C39.1004 23.4912 39.31 23.6021 39.5376 23.6258C40.9354 23.7684 42.2248 24.4433 43.1386 25.5105C44.0525 26.5777 44.5209 27.9556 44.4468 29.3587C44.3727 30.7618 43.7618 32.0826 42.7406 33.0476C41.7193 34.0127 40.3661 34.5479 38.961 34.5426H29.7499C29.515 34.5426 29.2898 34.6359 29.1238 34.8019C28.9577 34.968 28.8644 35.1932 28.8644 35.428C28.8644 35.6628 28.9577 35.888 29.1238 36.0541C29.2898 36.2201 29.515 36.3134 29.7499 36.3134H38.9582C40.7397 36.3123 42.4583 35.6548 43.7855 34.4665C45.1127 33.2782 45.9555 31.6424 46.1527 29.8719C46.3499 28.1013 45.8877 26.3202 44.8545 24.869C43.8213 23.4177 42.2895 22.3981 40.5519 22.0051V21.9895Z" fill="#0066CC"/>
<path d="M28.9594 30.5405L26.126 27.7072C26.1119 27.693 26.0934 27.6888 26.0779 27.676C25.9214 27.5283 25.7143 27.446 25.4992 27.446C25.284 27.446 25.0769 27.5283 24.9204 27.676C24.9063 27.6888 24.8864 27.6945 24.8723 27.7072L22.0389 30.5405C21.9567 30.6229 21.8915 30.7206 21.847 30.8281C21.8026 30.9356 21.7797 31.0508 21.7798 31.1672C21.7799 31.2836 21.8028 31.3988 21.8474 31.5062C21.892 31.6137 21.9573 31.7113 22.0397 31.7936C22.122 31.8758 22.2197 31.941 22.3272 31.9855C22.4347 32.0299 22.55 32.0528 22.6663 32.0527C22.7827 32.0527 22.8979 32.0297 23.0054 31.9851C23.1128 31.9405 23.2105 31.8752 23.2927 31.7929L24.6144 30.4711V41.0834C24.6144 41.3182 24.7077 41.5434 24.8738 41.7095C25.0398 41.8755 25.265 41.9688 25.4999 41.9688C25.7347 41.9688 25.9599 41.8755 26.1259 41.7095C26.292 41.5434 26.3853 41.3182 26.3853 41.0834V30.4711L27.707 31.7929C27.8731 31.9591 28.0984 32.0526 28.3334 32.0527C28.5684 32.0529 28.7938 31.9596 28.9601 31.7936C29.1263 31.6275 29.2198 31.4022 29.2199 31.1672C29.2201 30.9322 29.1268 30.7068 28.9608 30.5405H28.9594Z" fill="#0066CC"/>
</g>
<defs>
<clipPath id="clip0_418_721">
<rect width="51" height="51" fill="white"/>
</clipPath>
</defs>
</svg>
