<svg width="51" height="51" viewBox="0 0 51 51" fill="none" xmlns="http://www.w3.org/2000/svg">
<g clip-path="url(#clip0_418_733)">
<path d="M39.0402 27.54C39.1214 27.6237 39.2175 27.6915 39.3236 27.7398C39.4319 27.7832 39.547 27.8072 39.6636 27.8106C39.7805 27.8098 39.8961 27.7858 40.0036 27.7398C40.1137 27.6987 40.2113 27.6299 40.2869 27.54C40.3759 27.4638 40.4441 27.3663 40.4852 27.2567C40.555 27.0949 40.5733 26.9156 40.5379 26.7431C40.5024 26.5705 40.4148 26.4131 40.2869 26.2919C40.2108 26.2028 40.1133 26.1346 40.0036 26.0936C39.785 26.0081 39.5422 26.0081 39.3236 26.0936C39.2178 26.1419 39.1218 26.2091 39.0402 26.2919C38.9608 26.3736 38.8978 26.4698 38.8547 26.5753C38.8078 26.6825 38.7837 26.7983 38.7837 26.9153C38.7837 27.0323 38.8078 27.148 38.8547 27.2553C38.8908 27.3643 38.9547 27.4619 39.0402 27.5386V27.54Z" fill="#0066CC"/>
<path d="M25.8356 40.2617C25.617 40.1762 25.3742 40.1762 25.1556 40.2617C25.0499 40.31 24.9539 40.3772 24.8723 40.46C24.7076 40.6256 24.6153 40.8498 24.6159 41.0834C24.6138 41.1992 24.6355 41.3143 24.6796 41.4215C24.7237 41.5287 24.7893 41.6258 24.8723 41.7067C24.9534 41.7904 25.0495 41.8582 25.1556 41.9064C25.2639 41.9499 25.379 41.9738 25.4956 41.9773C25.6125 41.9765 25.7281 41.9524 25.8356 41.9064C25.9457 41.8654 26.0433 41.7966 26.1189 41.7067C26.2038 41.6266 26.2715 41.53 26.3177 41.4228C26.3639 41.3156 26.3878 41.2001 26.3878 41.0834C26.3878 40.9666 26.3639 40.8511 26.3177 40.7439C26.2715 40.6367 26.2038 40.5401 26.1189 40.46C26.0429 40.3709 25.9454 40.3027 25.8356 40.2617Z" fill="#0066CC"/>
<path d="M10.7057 26.4067C10.5417 26.5727 10.4497 26.7966 10.4497 27.03C10.4497 27.2634 10.5417 27.4873 10.7057 27.6533C10.7868 27.7371 10.883 27.8048 10.9891 27.8531C11.0996 27.892 11.2162 27.9107 11.3333 27.9083C11.4513 27.9101 11.5684 27.8883 11.6779 27.8443C11.7873 27.8002 11.8869 27.7349 11.9708 27.6519C12.1292 27.4834 12.2155 27.2596 12.2113 27.0283C12.2071 26.797 12.1126 26.5766 11.9481 26.4139C11.7837 26.2513 11.5621 26.1594 11.3308 26.1577C11.0995 26.1561 10.8767 26.2449 10.71 26.4053L10.7057 26.4067Z" fill="#0066CC"/>
<path d="M15.2388 36.0117C15.1359 36.0649 15.0406 36.1316 14.9554 36.21C14.7907 36.3756 14.6985 36.5998 14.699 36.8334C14.6958 36.9507 14.72 37.0671 14.7698 37.1734C14.8146 37.278 14.8774 37.3739 14.9554 37.4567C15.0366 37.5404 15.1327 37.6082 15.2388 37.6564C15.347 37.6999 15.4621 37.7238 15.5788 37.7273C15.6956 37.7277 15.8112 37.7039 15.9185 37.6576C16.0257 37.6113 16.1223 37.5434 16.2021 37.4581C16.288 37.3792 16.3557 37.2825 16.4004 37.1748C16.4444 37.0666 16.4684 36.9515 16.4713 36.8348C16.4683 36.6893 16.4303 36.5467 16.3603 36.4191C16.2904 36.2915 16.1907 36.1828 16.0696 36.1021C15.9485 36.0214 15.8098 35.9711 15.6651 35.9556C15.5204 35.9401 15.3742 35.9584 15.2388 36.0117Z" fill="#0066CC"/>
<path d="M35.0723 36.0117C34.9695 36.0649 34.8742 36.1316 34.789 36.21C34.6243 36.3756 34.532 36.5998 34.5325 36.8333C34.5293 36.9494 34.5505 37.0648 34.5946 37.1722C34.6388 37.2796 34.705 37.3765 34.789 37.4567C34.8701 37.5404 34.9662 37.6081 35.0723 37.6564C35.1806 37.6998 35.2957 37.7238 35.4123 37.7273C35.531 37.7265 35.6485 37.7024 35.7579 37.6562C35.8673 37.61 35.9665 37.5427 36.0498 37.4581C36.2137 37.2921 36.3054 37.068 36.3048 36.8348C36.2995 36.6027 36.2087 36.3807 36.0498 36.2114C35.9227 36.0886 35.7632 36.0046 35.59 35.9695C35.4168 35.9343 35.2372 35.9481 35.0723 36.0117Z" fill="#0066CC"/>
<path d="M36.0356 16.3766C35.9595 16.2875 35.862 16.2193 35.7523 16.1783C35.5337 16.0928 35.2909 16.0928 35.0723 16.1783C34.9665 16.2266 34.8705 16.2938 34.7889 16.3766C34.7095 16.4583 34.6465 16.5545 34.6033 16.66C34.5535 16.7662 34.5293 16.8827 34.5325 17C34.5328 17.2329 34.625 17.4564 34.7889 17.6219C34.8701 17.7056 34.9662 17.7734 35.0723 17.8216C35.1805 17.8651 35.2956 17.889 35.4123 17.8925C35.5292 17.8917 35.6448 17.8676 35.7523 17.8216C35.8623 17.7806 35.96 17.7118 36.0356 17.6219C36.1211 17.5426 36.1892 17.4463 36.2356 17.3392C36.2819 17.2322 36.3055 17.1166 36.3048 17C36.3046 16.8834 36.2807 16.768 36.2347 16.6609C36.1887 16.5538 36.12 16.4571 36.0356 16.3766Z" fill="#0066CC"/>
<path d="M16.2022 16.3767C16.1261 16.2876 16.0286 16.2193 15.9189 16.1783C15.757 16.1109 15.5785 16.0938 15.4067 16.1292C15.2349 16.1645 15.0777 16.2508 14.9556 16.3767C14.8763 16.4615 14.8091 16.5569 14.7558 16.66C14.6804 16.8804 14.6804 17.1196 14.7558 17.34C14.8056 17.4453 14.8731 17.5411 14.9556 17.6233C15.1192 17.7916 15.3428 17.8883 15.5775 17.8925C15.6944 17.8918 15.81 17.8677 15.9175 17.8217C16.0276 17.7806 16.1252 17.7118 16.2008 17.6219C16.2867 17.543 16.3544 17.4463 16.3991 17.3386C16.4689 17.1768 16.4872 16.9976 16.4518 16.825C16.4163 16.6525 16.3287 16.495 16.2008 16.3738L16.2022 16.3767Z" fill="#0066CC"/>
<path d="M29.3815 45.8263L29.4198 45.8164C33.1053 45.0522 36.487 43.2269 39.1486 40.5654C41.8101 37.9039 43.6353 34.5222 44.3996 30.8366C44.3996 30.8238 44.3996 30.8125 44.4095 30.7983C44.52 30.2543 44.5993 29.7018 44.6631 29.1451C44.673 29.053 44.6943 28.9652 44.7028 28.8731C44.7679 28.2271 44.8019 27.574 44.8019 26.9167C44.8019 26.2593 44.7679 25.6062 44.7028 24.9602C44.6928 24.8682 44.673 24.7789 44.6631 24.6882C44.5993 24.1315 44.5214 23.579 44.4095 23.035C44.4095 23.0222 44.4095 23.0109 44.3996 22.9967C43.6965 19.6091 42.0877 16.4756 39.7444 13.9301L40.525 13.1495L41.902 14.5265C42.0697 14.6857 42.2929 14.7731 42.5241 14.7701C42.7553 14.7671 42.9762 14.6739 43.1397 14.5105C43.3032 14.347 43.3964 14.1261 43.3994 13.8949C43.4024 13.6637 43.315 13.4404 43.1558 13.2728L39.1494 9.26075C38.9817 9.10155 38.7585 9.01413 38.5273 9.01713C38.2961 9.02012 38.0752 9.1133 37.9117 9.2768C37.7482 9.4403 37.655 9.66119 37.6521 9.89239C37.6491 10.1236 37.7365 10.3468 37.8957 10.5145L39.2727 11.8915L38.4921 12.6721C35.9466 10.3288 32.8131 8.71996 29.4254 8.01692L29.3872 8.007C28.8432 7.8965 28.2907 7.81717 27.7339 7.75342C27.6418 7.74208 27.554 7.72225 27.4619 7.71375C27.1078 7.67833 26.7536 7.67408 26.3909 7.65708V6.55208H28.3332C28.568 6.55208 28.7932 6.4588 28.9593 6.29275C29.1253 6.1267 29.2186 5.90149 29.2186 5.66667C29.2186 5.43184 29.1253 5.20663 28.9593 5.04058C28.7932 4.87453 28.568 4.78125 28.3332 4.78125H22.6665C22.4317 4.78125 22.2065 4.87453 22.0404 5.04058C21.8744 5.20663 21.7811 5.43184 21.7811 5.66667C21.7811 5.90149 21.8744 6.1267 22.0404 6.29275C22.2065 6.4588 22.4317 6.55208 22.6665 6.55208H24.6144V7.65708C24.2574 7.67267 23.8976 7.67833 23.5434 7.71375C23.4513 7.72225 23.3621 7.7435 23.2714 7.75342C22.7147 7.81717 22.1622 7.89508 21.6182 8.007L21.5813 8.01692C17.8955 8.78091 14.5135 10.606 11.8517 13.2676C9.18987 15.9291 7.36443 19.311 6.60009 22.9967C6.60009 23.0095 6.60009 23.0208 6.59017 23.035C6.47967 23.579 6.40034 24.1315 6.33659 24.6882C6.32525 24.7803 6.30542 24.8682 6.29692 24.9602C6.23175 25.6062 6.19775 26.2593 6.19775 26.9167C6.19775 27.574 6.23175 28.2271 6.29692 28.8731C6.30542 28.9652 6.32667 29.0544 6.33659 29.1451C6.40034 29.7018 6.47825 30.2543 6.59017 30.7983C6.59017 30.8111 6.59017 30.8224 6.60009 30.8366C7.36433 34.5222 9.18955 37.9039 11.8511 40.5654C14.5126 43.2269 17.8943 45.0522 21.5799 45.8164L21.6168 45.8263C22.1608 45.9368 22.7147 46.0162 23.27 46.0799C23.3621 46.0898 23.4499 46.1111 23.542 46.1196C24.188 46.1847 24.8411 46.2188 25.4984 46.2188C26.1558 46.2188 26.8088 46.1847 27.4548 46.1196C27.5469 46.1097 27.6362 46.0898 27.7268 46.0799C28.2836 46.0162 28.8375 45.9382 29.3815 45.8263ZM29.0259 44.0909C28.5343 44.1915 28.0343 44.2623 27.5271 44.3204C27.4421 44.3303 27.3599 44.3488 27.2763 44.3573C26.095 44.4772 24.9046 44.4772 23.7233 44.3573C23.6383 44.3488 23.5562 44.3303 23.4712 44.3204C22.9668 44.2623 22.4653 44.1915 21.9738 44.0909L21.9369 44.081C18.5941 43.3799 15.5278 41.7204 13.1126 39.3053C10.6975 36.8901 9.038 33.8238 8.33692 30.481C8.33692 30.4683 8.33692 30.4569 8.327 30.4442C8.22642 29.9526 8.15559 29.4525 8.0975 28.9468C8.08759 28.8617 8.06917 28.7796 8.06067 28.6946C7.94075 27.5133 7.94075 26.3229 8.06067 25.1416C8.06917 25.0566 8.08759 24.9744 8.0975 24.8908C8.15559 24.3851 8.22642 23.8836 8.327 23.392C8.327 23.3807 8.327 23.3693 8.3355 23.358C9.03628 20.0122 10.6971 16.9432 13.1148 14.5265C15.5325 12.1098 18.6022 10.4503 21.9483 9.75092H21.9752C22.4668 9.65033 22.9668 9.5795 23.4768 9.52142C23.5604 9.5115 23.6426 9.49308 23.7262 9.48458C24.9075 9.36466 26.0979 9.36466 27.2792 9.48458C27.3628 9.49308 27.4449 9.5115 27.5285 9.52142C28.0343 9.5795 28.5372 9.65033 29.0302 9.75092H29.0543C32.4029 10.4501 35.4748 12.1109 37.8938 14.5298C40.3127 16.9487 41.9735 20.0207 42.6727 23.3693C42.6727 23.3778 42.6727 23.3849 42.6727 23.3934C42.7733 23.885 42.8441 24.3851 42.9022 24.8951C42.9121 24.9787 42.9305 25.0594 42.939 25.1444C43.0589 26.3257 43.0589 27.5161 42.939 28.6974C42.9305 28.781 42.9121 28.8632 42.9022 28.9468C42.8441 29.4525 42.7733 29.9554 42.6727 30.4484C42.6727 30.4569 42.6727 30.4654 42.6727 30.4739C41.9733 33.82 40.3137 36.8897 37.8971 39.3074C35.4804 41.7251 32.4114 43.3859 29.0656 44.0867L29.0316 44.0952L29.0259 44.0909Z" fill="#0066CC"/>
<path d="M29.0216 29.1366C29.3826 28.5712 29.6012 27.9267 29.6587 27.2584C29.7162 26.5901 29.6109 25.9177 29.3517 25.299C29.0926 24.6803 28.6873 24.1336 28.1707 23.7057C27.654 23.2779 27.0414 22.9816 26.3852 22.8423V12.75C26.3852 12.5152 26.2919 12.2899 26.1259 12.1239C25.9598 11.9578 25.7346 11.8646 25.4998 11.8646C25.2649 11.8646 25.0397 11.9578 24.8737 12.1239C24.7076 12.2899 24.6144 12.5152 24.6144 12.75V22.8409C24.0151 22.9694 23.4515 23.2285 22.9637 23.5996C22.4759 23.9707 22.0759 24.4448 21.7922 24.9881C21.5084 25.5314 21.3479 26.1305 21.3221 26.7429C21.2962 27.3552 21.4056 27.9658 21.6426 28.531C21.8795 29.0963 22.2381 29.6024 22.6929 30.0133C23.1477 30.4243 23.6874 30.7299 24.2737 30.9085C24.86 31.0871 25.4785 31.1343 26.0851 31.0467C26.6918 30.9591 27.2716 30.7388 27.7834 30.4016L30.1294 32.7958C30.2938 32.9636 30.5181 33.0592 30.753 33.0616C30.9878 33.0639 31.214 32.9729 31.3818 32.8086C31.5495 32.6442 31.6451 32.4199 31.6475 32.185C31.6499 31.9502 31.5589 31.724 31.3945 31.5562L29.0216 29.1337V29.1366ZM23.0914 26.9166C23.0914 26.4403 23.2327 25.9747 23.4973 25.5786C23.762 25.1826 24.1381 24.8739 24.5781 24.6916C25.0182 24.5094 25.5024 24.4617 25.9696 24.5546C26.4368 24.6475 26.8659 24.8769 27.2027 25.2137C27.5395 25.5505 27.7689 25.9796 27.8618 26.4468C27.9548 26.914 27.9071 27.3982 27.7248 27.8383C27.5425 28.2783 27.2338 28.6545 26.8378 28.9191C26.4417 29.1837 25.9761 29.325 25.4998 29.325C24.861 29.325 24.2485 29.0712 23.7968 28.6196C23.3452 28.1679 23.0914 27.5554 23.0914 26.9166Z" fill="#0066CC"/>
</g>
<defs>
<clipPath id="clip0_418_733">
<rect width="51" height="51" fill="white"/>
</clipPath>
</defs>
</svg>
