<svg width="468" height="297" viewBox="0 0 468 297" fill="none" xmlns="http://www.w3.org/2000/svg">
<path d="M91.6247 125.504C92.244 143.605 97.3086 161.514 106.444 176.024C126.088 207.158 160.51 225.722 187.608 249.428C211.637 270.466 236.462 288.808 269.225 295.021C297.838 300.445 348.406 295.566 371.4 269.745C393.401 245.041 392.001 213.339 389.168 182.758C386.247 151.222 405.66 120.701 411.409 91.0624C416.922 62.6425 412.832 23.9595 378.137 8.68272C346.585 -5.2134 306.918 -2.19869 275.712 16.0693C248.861 31.7907 237.358 40.7053 193.671 42.1134C164.799 43.0368 130.136 46.0524 111.149 70.9028C98.4871 87.4902 90.8808 103.806 91.6247 125.504Z" fill="#261A4C"/>
<path d="M244.845 122.087C244.845 116.404 242.607 110.948 238.615 106.899C234.622 102.85 229.195 100.533 223.507 100.449C223.153 90.7398 219.163 81.5171 212.328 74.606C205.493 67.6948 196.31 63.5987 186.597 63.1282C181.746 52.6771 173.828 43.9471 163.894 38.0973C153.96 32.2476 142.481 29.5547 130.979 30.3762C119.477 31.1976 108.498 35.4946 99.498 42.6967C90.4982 49.8988 83.9038 59.6652 80.5905 70.6995C79.8003 70.6488 79.0054 70.6119 78.2015 70.6119C68.5463 70.6665 59.3039 74.531 52.4881 81.3634C45.6724 88.1958 41.8355 97.4424 41.8136 107.089C41.7916 116.735 45.5864 125.999 52.371 132.862C59.1556 139.725 68.3803 143.632 78.0351 143.73H223.537C229.221 143.637 234.64 141.316 238.626 137.267C242.612 133.219 244.845 127.767 244.845 122.088V122.087Z" fill="#6C97D3"/>
<path d="M93.9912 65.3765C93.9912 65.3765 105.752 35.119 138.353 39.6667" stroke="white" stroke-width="1.9" stroke-miterlimit="10" stroke-linecap="round"/>
<path d="M77.0922 78.4048C77.0922 78.4048 56.0148 79.282 51.6211 99.4659" stroke="white" stroke-width="1.9" stroke-miterlimit="10" stroke-linecap="round"/>
<path d="M80.544 118.357C80.544 118.357 64.0929 122.014 56.0986 136.283C57.6175 137.466 59.2364 138.515 60.9369 139.418C60.9369 139.418 59.8463 124.525 80.544 118.357Z" fill="#261A4C"/>
<path d="M228.043 100.343L220.977 162.64H280.713C273.749 134.327 256.809 106.954 228.043 100.343Z" fill="#4B3398"/>
<path d="M378.133 58.0413H232.839L228.042 100.344C256.808 106.945 273.749 134.327 280.722 162.64H366.271L378.133 58.0413Z" fill="black"/>
<path d="M238.011 53.4012H383.31L371.448 158H226.148L238.011 53.4012Z" fill="white" stroke="white" stroke-width="1.9" stroke-miterlimit="10"/>
<path d="M238.011 53.4012H383.309L381.027 73.502H235.732L238.011 53.4012Z" fill="#261A4C"/>
<path d="M246.96 63.4009H299.294" stroke="white" stroke-width="2.51" stroke-linecap="round" stroke-linejoin="round"/>
<path d="M359.601 65.4237C360.851 64.2433 361.009 62.3821 359.954 61.2665C358.898 60.1509 357.03 60.2033 355.779 61.3836C354.529 62.5639 354.371 64.4252 355.426 65.5408C356.482 66.6564 358.351 66.604 359.601 65.4237Z" fill="white"/>
<path d="M371.237 65.422C372.487 64.2417 372.645 62.3804 371.59 61.2648C370.535 60.1492 368.666 60.2016 367.416 61.382C366.165 62.5623 366.007 64.4235 367.063 65.5391C368.118 66.6547 369.987 66.6023 371.237 65.422Z" fill="white"/>
<path d="M244.433 85.7227H312.048L304.983 148.02H237.368L244.433 85.7227Z" fill="#E2EAF6"/>
<path d="M324.127 85.7227H366.714L363.863 110.879H321.276L324.127 85.7227Z" fill="#E2EAF6"/>
<path d="M319.909 122.946H362.492L359.65 148.02H317.062L319.909 122.946Z" fill="#E2EAF6"/>
<path d="M244.433 85.7227H312.048L304.983 148.02H237.368L244.433 85.7227Z" fill="#E2EAF6"/>
<path d="M324.127 85.7227H366.714L363.863 110.879H321.276L324.127 85.7227Z" fill="#E2EAF6"/>
<path d="M319.909 122.946H362.492L359.65 148.02H317.062L319.909 122.946Z" fill="#E2EAF6"/>
<path d="M247.021 83.4002H314.631L307.565 145.697H239.955L247.021 83.4002Z" fill="white" stroke="#EE0000" stroke-width="1.9" stroke-miterlimit="10"/>
<path d="M326.716 83.4002H369.303L365.652 115.232H323.065L326.716 83.4002Z" fill="white" stroke="#EE0000" stroke-width="1.9" stroke-miterlimit="10"/>
<path d="M322.491 120.624H365.079L362.237 145.697H319.649L322.491 120.624Z" fill="white" stroke="#EE0000" stroke-width="1.9" stroke-miterlimit="10"/>
<path d="M238.103 157.659C238.103 157.659 264.221 155.097 287.016 130.85C309.812 106.603 332.233 121.197 347.686 120.148C363.139 119.1 374.155 89.4893 412.759 86.8479C439.302 85.0289 465.143 100.956 465.563 128.153C465.933 152.136 446.201 171.623 422.195 171.623H312.016L232.997 171.854L238.103 157.659Z" fill="#A7C0E4" stroke="#A7C0E4" stroke-width="3.8" stroke-miterlimit="10"/>
<path d="M294.368 133.79C294.368 133.79 304.169 121.044 324.026 124.599C343.882 128.155 344.1 128.893 351.83 127.914" fill="white"/>
<path d="M294.368 133.79C294.368 133.79 304.169 121.044 324.026 124.599C343.882 128.155 344.1 128.893 351.83 127.914" stroke="#EE0000" stroke-width="1.9" stroke-miterlimit="10" stroke-linecap="round"/>
<path d="M410.25 95.9625C410.25 95.9625 435.739 91.3736 451.672 111.599" stroke="white" stroke-width="1.9" stroke-miterlimit="10" stroke-linecap="round"/>
<path d="M352.066 116.931H162.419L159.161 143.338H348.73L352.066 116.931Z" fill="#4B3398"/>
<path d="M159.162 143.338L146.32 247.314H335.588L348.73 143.338H159.162Z" fill="black"/>
<path d="M169.244 110.874H358.887L341.858 247.397H152.216L169.244 110.874Z" fill="white" stroke="#EE0000" stroke-width="1.9" stroke-miterlimit="10"/>
<path d="M169.245 110.874H358.887L355.615 137.111H165.968L169.245 110.874Z" fill="#EE0000"/>
<path d="M180.778 123.925H249.082" stroke="white" stroke-width="3.28" stroke-linecap="round" stroke-linejoin="round"/>
<path d="M327.776 126.548C329.421 125.004 329.648 122.576 328.282 121.124C326.917 119.673 324.477 119.747 322.832 121.291C321.187 122.835 320.961 125.264 322.326 126.716C323.691 128.167 326.132 128.092 327.776 126.548Z" fill="white"/>
<path d="M342.958 126.551C344.603 125.007 344.83 122.579 343.464 121.127C342.099 119.675 339.659 119.75 338.014 121.294C336.369 122.838 336.143 125.267 337.508 126.718C338.874 128.17 341.314 128.095 342.958 126.551Z" fill="white"/>
<path d="M177.147 153.06H265.399L255.256 234.369H167.008L177.147 153.06Z" fill="#E2EAF6"/>
<path d="M281.165 153.06H336.752L332.657 185.894H277.071L281.165 153.06Z" fill="#E2EAF6"/>
<path d="M275.107 201.646H330.694L326.613 234.369H271.027L275.107 201.646Z" fill="#E2EAF6"/>
<path d="M177.147 153.06H265.399L255.256 234.369H167.008L177.147 153.06Z" fill="#261A4C"/>
<path d="M281.165 153.06H336.752L332.657 185.894H277.071L281.165 153.06Z" fill="#261A4C"/>
<path d="M275.107 201.646H330.694L326.613 234.369H271.027L275.107 201.646Z" fill="#261A4C"/>
<path d="M180.557 150.032H268.808L258.67 231.34H170.418L180.557 150.032Z" fill="white" stroke="#EE0000" stroke-width="1.9" stroke-miterlimit="10"/>
<path d="M284.577 150.032H340.163L336.069 182.861H280.482L284.577 150.032Z" fill="white" stroke="#EE0000" stroke-width="1.9" stroke-miterlimit="10"/>
<path d="M278.519 198.617H334.105L330.024 231.34H274.438L278.519 198.617Z" fill="white" stroke="#EE0000" stroke-width="1.9" stroke-miterlimit="10"/>
<path d="M111.86 125.785C102.092 117.29 90.7282 113.629 76.5 119.899C42.9005 134.696 75.7006 183.318 51.1907 174.196C28.9354 165.914 1.99547 186.448 2 216.165V217.245C2.42056 234.281 16.6256 247.752 33.6817 247.761L326.951 247.863C326.951 247.863 290.588 252.942 256.845 218.081C223.102 183.221 195.062 205.585 172.775 200.353C149.73 194.947 135.418 146.283 111.847 125.785" fill="#A7C0E4"/>
<path d="M111.86 125.785C102.092 117.29 90.7282 113.629 76.5 119.899C42.9005 134.696 75.7006 183.318 51.1907 174.196C28.9354 165.914 1.99547 186.448 2 216.165V217.245C2.42056 234.281 16.6256 247.752 33.6817 247.761L326.951 247.863C326.951 247.863 290.588 252.942 256.845 218.081C223.102 183.221 195.062 205.585 172.775 200.353C149.73 194.947 135.418 146.283 111.847 125.785" stroke="#A7C0E4" stroke-width="3.8" stroke-miterlimit="10"/>
<path d="M162.026 203.34C162.026 203.34 177.363 211.396 193.837 207.619C210.311 203.841 213.32 203.187 223.874 205.985" stroke="white" stroke-width="2.26" stroke-miterlimit="10" stroke-linecap="round"/>
<path d="M117.295 143.024C117.295 143.024 102.462 121.866 87.6237 124.266C72.7857 126.667 70.1699 141.422 70.1699 141.422" stroke="white" stroke-width="2.26" stroke-miterlimit="10" stroke-linecap="round"/>
<path d="M41.6761 180.428C41.6761 180.428 20.6875 180.391 14.583 200.741" stroke="white" stroke-width="2.26" stroke-miterlimit="10" stroke-linecap="round"/>
<path d="M225.964 74.4575H178.972" stroke="#261A4C" stroke-width="2.85" stroke-miterlimit="10" stroke-linecap="round"/>
<path d="M199.391 83.4509H152.405" stroke="#261A4C" stroke-width="2.85" stroke-miterlimit="10" stroke-linecap="round"/>
<path d="M223.108 92.6658H176.121" stroke="#261A4C" stroke-width="2.85" stroke-miterlimit="10" stroke-linecap="round"/>
<path d="M136.596 148.822H89.6099" stroke="#261A4C" stroke-width="2.85" stroke-miterlimit="10" stroke-linecap="round"/>
<path d="M150.648 157.599H102.779" stroke="#261A4C" stroke-width="2.85" stroke-miterlimit="10" stroke-linecap="round"/>
<path d="M95.3171 157.599H82.1426" stroke="#261A4C" stroke-width="2.85" stroke-miterlimit="10" stroke-linecap="round"/>
<path d="M136.158 167.686H96.6348" stroke="#261A4C" stroke-width="2.85" stroke-miterlimit="10" stroke-linecap="round"/>
<path d="M281.739 247.919C283.137 253.999 286.558 259.425 291.442 263.312C296.326 267.198 302.385 269.315 308.629 269.317C309.23 269.317 309.826 269.289 310.417 269.252H367.455C371.738 262.198 375.8 255.134 379.654 247.919H281.739Z" fill="black"/>
<path d="M379.654 247.919C375.8 255.135 371.738 262.198 367.455 269.252H391.516V269.188C397.292 268.798 402.772 266.495 407.09 262.642C411.407 258.79 414.315 253.608 415.352 247.919H379.654Z" fill="black"/>
<path d="M415.781 243.274C415.783 239.274 414.86 235.326 413.084 231.74C411.308 228.154 408.727 225.026 405.542 222.601C402.357 220.175 398.654 218.518 394.722 217.757C390.791 216.996 386.736 217.153 382.875 218.215C380.625 210.036 375.852 202.773 369.233 197.459C362.615 192.146 354.489 189.051 346.009 188.615C337.53 188.18 329.129 190.425 322 195.033C314.871 199.641 309.377 206.376 306.299 214.282C302.362 214.613 298.542 215.785 295.097 217.72C291.653 219.654 288.665 222.306 286.336 225.495C284.007 228.684 282.391 232.335 281.598 236.203C280.805 240.07 280.853 244.062 281.739 247.909H415.356C415.635 246.38 415.777 244.829 415.781 243.274Z" fill="#4B3398"/>
<path d="M420.873 241.455C420.874 237.455 419.95 233.509 418.173 229.924C416.396 226.339 413.815 223.212 410.63 220.788C407.445 218.363 403.743 216.707 399.812 215.946C395.881 215.186 391.827 215.343 387.967 216.405C385.714 208.228 380.939 200.969 374.321 195.657C367.703 190.345 359.578 187.252 351.1 186.817C342.623 186.381 334.223 188.626 327.095 193.231C319.966 197.837 314.472 204.569 311.391 212.472C304.3 213.068 297.714 216.379 293.009 221.712C288.304 227.045 285.844 233.989 286.142 241.092C286.44 248.195 289.474 254.908 294.61 259.828C299.746 264.749 306.587 267.497 313.703 267.498C314.303 267.498 314.899 267.47 315.491 267.433H396.612V267.368C403.191 266.928 409.357 264.007 413.862 259.196C418.366 254.384 420.872 248.043 420.872 241.455L420.873 241.455Z" fill="white" stroke="#EE0000" stroke-width="1.9" stroke-miterlimit="10"/>
<path d="M348.919 186.771C348.919 186.771 315.985 189.841 327.404 220.112C327.404 220.112 322.575 212.657 312.034 212.657C312.034 212.675 317.303 189.403 348.919 186.771Z" fill="#E2EAF6"/>
<path d="M293.586 220.985C286.123 228.003 287.44 260.028 313.35 260.028H401.612C405.125 260.05 408.585 259.171 411.66 257.473C414.735 255.775 417.322 253.317 419.172 250.333C419.306 250.112 419.435 249.872 419.565 249.664C419.565 249.664 413.945 267.466 395.073 267.466C376.202 267.466 311.188 267.346 311.188 267.346C311.188 267.346 302.616 268.532 291.973 256.811C281.329 245.089 287.441 225.38 293.586 220.985Z" fill="#E2EAF6"/>
<path d="M388.005 216.604C388.005 216.604 377.464 220.113 373.513 233.714C373.513 233.714 384.932 212.219 408.208 219.236C408.222 219.236 396.789 213.534 388.005 216.604Z" fill="#E2EAF6"/>
<path d="M420.873 241.455C420.874 237.455 419.95 233.509 418.173 229.924C416.396 226.339 413.815 223.212 410.63 220.788C407.445 218.363 403.743 216.707 399.812 215.946C395.881 215.186 391.827 215.343 387.967 216.405C385.714 208.228 380.939 200.969 374.321 195.657C367.703 190.345 359.578 187.252 351.1 186.817C342.623 186.381 334.223 188.626 327.095 193.231C319.966 197.837 314.472 204.569 311.391 212.472C304.3 213.068 297.714 216.379 293.009 221.712C288.304 227.045 285.844 233.989 286.142 241.092C286.44 248.195 289.474 254.908 294.61 259.828C299.746 264.749 306.587 267.497 313.703 267.498C314.303 267.498 314.899 267.47 315.491 267.433H396.612V267.368C403.191 266.928 409.357 264.007 413.862 259.196C418.366 254.384 420.872 248.043 420.872 241.455L420.873 241.455Z" stroke="#EE0000" stroke-width="1.9" stroke-miterlimit="10"/>
</svg>
