<svg width="24" height="24" viewBox="0 0 24 24" fill="none" xmlns="http://www.w3.org/2000/svg">
<path d="M4.40677 19.3182C3.93422 19.3182 3.53198 19.1523 3.20005 18.8204C2.86812 18.4884 2.70215 18.0861 2.70215 17.6134V6.38658C2.70215 5.9139 2.86812 5.51159 3.20005 5.17965C3.53198 4.84774 3.93422 4.68178 4.40677 4.68178H19.5936C20.0662 4.68178 20.4684 4.84774 20.8003 5.17965C21.1323 5.51159 21.2982 5.9139 21.2982 6.38658V17.6134C21.2982 18.0861 21.1323 18.4884 20.8003 18.8204C20.4684 19.1523 20.0662 19.3182 19.5936 19.3182H4.40677ZM12.0002 12.4846L4.10115 7.42208V17.6115C4.10115 17.7013 4.13 17.775 4.1877 17.8327C4.2454 17.8904 4.31912 17.9192 4.40887 17.9192H19.5915C19.6813 17.9192 19.755 17.8904 19.8127 17.8327C19.8704 17.775 19.8992 17.7013 19.8992 17.6115V7.42208L12.0002 12.4846ZM12.0002 11.0202L19.7252 6.08078H4.2752L12.0002 11.0202ZM4.10115 7.42208V6.08078V17.6115C4.10115 17.7013 4.13 17.775 4.1877 17.8327C4.2454 17.8904 4.31912 17.9192 4.40887 17.9192H4.10115V7.42208Z" fill="black"/>
</svg>
