<svg width="24" height="24" viewBox="0 0 24 24" fill="none" xmlns="http://www.w3.org/2000/svg">
<path d="M11.9987 2.20757e-06C9.15001 0.000316831 6.39433 1.01405 4.22455 2.85987C2.05476 4.7057 0.612397 7.26324 0.155428 10.075C-0.301541 12.8868 0.256693 15.7695 1.73029 18.2075C3.20388 20.6454 5.49672 22.4796 8.1987 23.382C8.7987 23.495 9.0187 23.124 9.0187 22.805C9.0187 22.52 9.0087 21.765 9.0037 20.765C5.6657 21.489 4.9617 19.155 4.9617 19.155C4.74144 18.4303 4.26983 17.808 3.6317 17.4C2.5447 16.656 3.7157 16.671 3.7157 16.671C4.09606 16.7231 4.45945 16.8616 4.77803 17.0759C5.09661 17.2901 5.36194 17.5744 5.5537 17.907C5.7162 18.2035 5.93588 18.4647 6.20002 18.6757C6.46416 18.8867 6.76751 19.0433 7.09254 19.1363C7.41757 19.2293 7.75781 19.2569 8.09358 19.2175C8.42935 19.1782 8.75399 19.0726 9.0487 18.907C9.1034 18.3002 9.3729 17.7328 9.8087 17.307C7.1437 17.007 4.3427 15.975 4.3427 11.377C4.32254 10.1823 4.76505 9.02601 5.5777 8.15C5.20249 7.1173 5.2401 5.97966 5.6827 4.974C5.6827 4.974 6.6877 4.652 8.9827 6.204C10.9463 5.66402 13.0191 5.66402 14.9827 6.204C17.2627 4.652 18.2677 4.974 18.2677 4.974C18.7035 5.98041 18.7463 7.11358 18.3877 8.15C19.1952 9.02602 19.6356 10.1787 19.6177 11.37C19.6177 15.98 16.8127 16.995 14.1427 17.29C14.4274 17.5814 14.6469 17.9301 14.7865 18.3129C14.9262 18.6956 14.9828 19.1037 14.9527 19.51C14.9527 21.116 14.9377 22.41 14.9377 22.796C14.9377 23.111 15.1477 23.486 15.7627 23.366C18.4686 22.4728 20.7677 20.6448 22.2477 18.2098C23.7276 15.7748 24.2916 12.8921 23.8384 10.0789C23.3853 7.26571 21.9446 4.706 19.7748 2.85892C17.6051 1.01185 14.8482 -0.00172647 11.9987 2.20757e-06Z" fill="#181717"/>
</svg>
