<svg width="51" height="51" viewBox="0 0 51 51" fill="none" xmlns="http://www.w3.org/2000/svg">
<g clip-path="url(#clip0_418_752)">
<path d="M43.4551 31.8906C44.5308 31.045 45.3444 29.9114 45.801 28.6215C46.2577 27.3317 46.3386 25.9387 46.0345 24.6046C45.7304 23.2705 45.0538 22.0502 44.0832 21.0857C43.1127 20.1211 41.8883 19.452 40.5523 19.1562V19.125C40.5527 16.212 39.569 13.3842 37.7608 11.1003C35.9527 8.81634 33.426 7.21016 30.5906 6.54218C27.7552 5.8742 24.7772 6.18359 22.1397 7.42019C19.5021 8.65679 17.3596 10.7481 16.0596 13.3549C14.1395 13.1188 12.192 13.4419 10.4509 14.2853C8.70988 15.1287 7.24921 16.4566 6.24423 18.1096C5.23926 19.7627 4.7327 21.6707 4.78533 23.6045C4.83797 25.5384 5.44758 27.416 6.54099 29.0119C5.50475 30.5286 4.90197 32.2993 4.79757 34.1332C4.69317 35.9671 5.09112 37.7947 5.94854 39.4192C6.80596 41.0437 8.09035 42.4034 9.66336 43.352C11.2364 44.3005 13.0384 44.8019 14.8752 44.8021H39.6669C39.8107 44.799 39.9514 44.7601 40.0763 44.6888C41.7837 44.4245 43.3407 43.5593 44.4669 42.249C45.593 40.9387 46.2143 39.2694 46.219 37.5417C46.2176 36.4517 45.9679 35.3764 45.4891 34.3973C45.0102 33.4181 44.3146 32.5609 43.4551 31.8906ZM38.9586 43.0313H14.8752C13.7149 43.0346 12.5668 42.7952 11.5044 42.3286C10.4421 41.8619 9.48907 41.1783 8.70653 40.3216C7.92398 39.4649 7.32921 38.4541 6.96039 37.3539C6.59158 36.2538 6.45686 35.0887 6.5649 33.9334C6.67294 32.7782 7.02133 31.6583 7.58773 30.6456C8.15413 29.6329 8.92601 28.7499 9.85383 28.0531C10.7817 27.3564 11.8449 26.8613 12.9753 26.5997C14.1058 26.3382 15.2784 26.3158 16.418 26.5342C16.6153 26.5722 16.8196 26.5416 16.9971 26.4476C17.1746 26.3535 17.3147 26.2017 17.3941 26.0171C18.4978 23.474 20.5081 21.4324 23.0338 20.2895C23.2478 20.1926 23.4145 20.0146 23.4973 19.7948C23.58 19.5749 23.5721 19.3312 23.4751 19.1172C23.3782 18.9033 23.2002 18.7366 22.9804 18.6538C22.7605 18.571 22.5168 18.579 22.3028 18.6759C19.5927 19.9025 17.3882 22.0259 16.061 24.6883C14.5409 24.4962 12.9969 24.6578 11.5495 25.1606C10.1022 25.6634 8.7905 26.4937 7.71682 27.5868C6.95562 26.3137 6.55322 24.8583 6.55232 23.375C6.5492 22.1505 6.81701 20.9405 7.33656 19.8316C7.85611 18.7228 8.61452 17.7426 9.55745 16.9613C10.5004 16.1801 11.6044 15.6171 12.7905 15.3127C13.9766 15.0084 15.2154 14.9702 16.418 15.2009C16.6152 15.2381 16.8192 15.2071 16.9966 15.1132C17.1739 15.0192 17.3141 14.8678 17.3941 14.6838C18.4136 12.3286 20.2141 10.397 22.4919 9.21463C24.7698 8.03229 27.3856 7.67157 29.8985 8.19327C32.4113 8.71497 34.6674 10.0872 36.2863 12.0786C37.9052 14.0699 38.788 16.5586 38.7857 19.125C38.7857 19.3092 38.773 19.4905 38.7588 19.6719L38.7475 19.8433C38.7327 20.0714 38.8067 20.2964 38.954 20.4712C39.1014 20.646 39.3106 20.7571 39.538 20.7811C40.6797 20.8949 41.7565 21.3656 42.6155 22.1264C43.4744 22.8871 44.0718 23.8991 44.3228 25.0187C44.5737 26.1383 44.4655 27.3085 44.0135 28.3631C43.5614 29.4177 42.7886 30.303 41.8047 30.8933C41.4026 30.7215 40.9858 30.5863 40.5594 30.4895V30.4584C40.5656 28.2632 40.0101 26.1029 38.9455 24.1832C37.881 22.2634 36.3429 20.6479 34.4777 19.4905C34.2785 19.366 34.0381 19.3256 33.8092 19.3784C33.5803 19.4311 33.3818 19.5726 33.2572 19.7717C33.1326 19.9709 33.0923 20.2113 33.145 20.4402C33.1978 20.6691 33.3393 20.8676 33.5384 20.9922C35.1471 21.9919 36.4734 23.3865 37.3911 25.0434C38.3088 26.7002 38.7875 28.5643 38.7815 30.4584C38.7815 30.6425 38.7687 30.8239 38.7546 31.0052L38.7432 31.1766C38.7284 31.4048 38.8025 31.6298 38.9498 31.8046C39.0971 31.9794 39.3064 32.0904 39.5337 32.1144C40.9314 32.2571 42.2206 32.9319 43.1345 33.999C44.0484 35.066 44.5168 36.4437 44.4429 37.8467C44.369 39.2496 43.7584 40.5704 42.7374 41.5356C41.7165 42.5007 40.3635 43.0362 38.9586 43.0313Z" fill="#0066CC"/>
<path d="M28.9598 12.1253C28.7934 11.9598 28.5683 11.867 28.3336 11.867C28.099 11.867 27.8739 11.9598 27.7074 12.1253L24.8741 14.9586C24.7919 15.0408 24.7267 15.1384 24.6822 15.2459C24.6376 15.3533 24.6147 15.4685 24.6147 15.5848C24.6147 15.701 24.6376 15.8162 24.6822 15.9236C24.7267 16.0311 24.7919 16.1287 24.8741 16.2109C24.9563 16.2931 25.054 16.3584 25.1614 16.4029C25.2688 16.4474 25.384 16.4703 25.5003 16.4703C25.6166 16.4703 25.7317 16.4474 25.8392 16.4029C25.9466 16.3584 26.0442 16.2931 26.1264 16.2109L27.4482 14.8892V25.5C27.4482 25.7348 27.5415 25.96 27.7075 26.1261C27.8736 26.2921 28.0988 26.3854 28.3336 26.3854C28.5684 26.3854 28.7936 26.2921 28.9597 26.1261C29.1257 25.96 29.219 25.7348 29.219 25.5V14.8878L30.5408 16.2095C30.7068 16.3756 30.9321 16.4689 31.1669 16.4689C31.4018 16.4689 31.627 16.3756 31.7931 16.2095C31.9592 16.0434 32.0525 15.8182 32.0525 15.5833C32.0525 15.3485 31.9592 15.1232 31.7931 14.9572L28.9598 12.1253Z" fill="#0066CC"/>
</g>
<defs>
<clipPath id="clip0_418_752">
<rect width="51" height="51" fill="white"/>
</clipPath>
</defs>
</svg>
