<svg xmlns="http://www.w3.org/2000/svg" height="24" viewBox="0 -960 960 960" width="24">
                    <path d="M480-140.001q-59.615 0-110.115-29.308-50.499-29.307-80.191-80.692h-112v-59.998h89.385q-6.078-24.616-6.578-49.809-.5-25.192-.5-50.193h-82.307v-59.998h82.307q0-25.385.116-50.578.115-25.193 6.962-49.424h-89.385v-59.998h112q14.384-24.539 34-44.731 19.615-20.192 44.923-34.039l-67.846-69.077 41.383-41.383 85.231 85.23q25.692-7.846 52-7.846 26.307 0 51.999 7.846l87.231-85.23 41.384 41.383-69.078 69.077q25.308 13.847 45.155 33.731 19.846 19.885 34.23 45.039h112v59.998h-89.385q6.847 24.231 6.962 49.424.116 25.193.116 50.578h82.307v59.998h-82.307q0 25.001-.5 50.193-.5 25.193-6.578 49.809h89.385v59.998h-112q-29.692 51.385-80.191 80.692-50.5 29.308-110.115 29.308ZM480-200q66 0 113-47t47-113v-160q0-66-47-113t-113-47q-66 0-113 47t-47 113v160q0 66 47 113t113 47Zm-73.846-130.001h147.692v-59.998H406.154v59.998Zm0-160h147.692v-59.998H406.154v59.998ZM480-440Z" fill="white"></path>
                  </svg>