<svg width="23" height="23" viewBox="0 0 23 23" fill="none" xmlns="http://www.w3.org/2000/svg">
<path d="M18.1687 14.5342C18.1687 15.864 19.255 16.9503 20.5848 16.9503C21.9147 16.9503 23.001 15.864 23.001 14.5342C23.001 13.2044 21.9147 12.1181 20.5848 12.1181H18.1687V14.5342Z" fill="#E01E5A"/>
<path d="M16.9507 14.5342C16.9507 13.2044 15.8644 12.1181 14.5346 12.1181C13.2047 12.1181 12.1184 13.2044 12.1184 14.5342V20.5839C12.1184 21.9137 13.2047 23 14.5346 23C15.8644 23 16.9507 21.9137 16.9507 20.5839V14.5342Z" fill="#E01E5A"/>
<path d="M14.5346 4.83226C15.8644 4.83226 16.9507 3.74593 16.9507 2.41613C16.9507 1.08632 15.8644 0 14.5346 0C13.2047 0 12.1184 1.08632 12.1184 2.41613V4.83226H14.5346Z" fill="#36C5F0"/>
<path d="M14.5352 6.04961C13.2054 6.04961 12.119 7.13593 12.119 8.46573C12.119 9.79554 13.2054 10.8819 14.5352 10.8819H20.5848C21.9147 10.8819 23.001 9.79554 23.001 8.46573C23.001 7.13593 21.9147 6.04961 20.5848 6.04961H14.5352Z" fill="#36C5F0"/>
<path d="M4.83252 8.46573C4.83252 7.13593 3.7462 6.04961 2.41639 6.04961C1.08659 6.04961 0.000266484 7.13593 0.000266484 8.46573C0.000266484 9.79554 1.08659 10.8819 2.41639 10.8819H4.83252V8.46573Z" fill="#2EB67D"/>
<path d="M6.05007 8.46581C6.05007 9.79562 7.13639 10.8819 8.4662 10.8819C9.796 10.8819 10.8823 9.79562 10.8823 8.46581V2.41613C10.8823 1.08632 9.796 0 8.4662 0C7.13639 0 6.05007 1.08632 6.05007 2.41613V8.46581Z" fill="#2EB67D"/>
<path d="M8.4662 18.1676C7.13639 18.1676 6.05007 19.254 6.05007 20.5838C6.05007 21.9136 7.13639 22.9999 8.4662 22.9999C9.796 22.9999 10.8823 21.9136 10.8823 20.5838V18.1676H8.4662Z" fill="#ECB22E"/>
<path d="M8.4662 16.9503C9.796 16.9503 10.8823 15.864 10.8823 14.5342C10.8823 13.2043 9.796 12.118 8.4662 12.118H2.41651C1.08671 12.118 0.000388328 13.2043 0.000388328 14.5342C0.000388328 15.864 1.08671 16.9503 2.41651 16.9503H8.4662Z" fill="#ECB22E"/>
</svg>
