<?xml version="1.0" encoding="UTF-8"?>
<svg width="430px" height="83px" viewBox="0 0 430 83" version="1.1" xmlns="http://www.w3.org/2000/svg" xmlns:xlink="http://www.w3.org/1999/xlink">
    <g id="Page-1" stroke="none" stroke-width="1" fill="none" fill-rule="evenodd">
        <g>
            <path d="M89.385,17.248 L74.346,17.248 L74.346,30.843 L89.385,30.843 C93.634,30.843 96.5220003,28.124 96.5220003,24.131 C96.523,20.052 93.634,17.248 89.385,17.248 Z" id="Path"></path>
            <path d="M315.172,30.418 C311.348,30.418 308.119,31.608 305.654,33.987 L305.654,49.706 C308.033,51.915 311.432,53.189 315.172,53.189 C321.885,53.189 326.982,48.261 326.982,41.803 C326.982,35.345 321.8,30.418 315.172,30.418 Z" id="Path"></path>
            <polygon id="Path" points="129.072 38.235 143.516 38.235 136.379 19.203"></polygon>
            <polygon id="Path" fill="#FED402" fill-rule="nonzero" points="400.177 49.986 409.08 41.082 400.176 32.178 373.089 41.082"></polygon>
            <polygon id="Path" fill="#FDB716" fill-rule="nonzero" points="400.177 49.986 373.089 41.082 400.176 32.178 394.653 26.655 350.763 41.082 394.654 55.508"></polygon>
            <g fill="#000000" fill-rule="nonzero">
                <path d="M35.509,28.634 L23.189,26.595 C18.176,25.746 16.136,24.301 16.136,21.327 C16.136,18.098 19.79,16.144 25.738,16.144 C32.025,16.144 37.718,18.353 44.006,23.196 L51.738,12.405 C45.196,7.137 35.595,3.909 26.758,3.909 C11.549,3.909 2.373,10.876 2.373,22.432 C2.373,31.184 7.726,37.046 17.412,38.746 L30.497,41.04 C36.445,42.059 38.739,43.674 38.739,46.988 C38.739,50.641 34.745,52.765 28.033,52.765 C21.15,52.765 15.458,50.386 8.235,44.523 L0.078,55.144 C7.47,61.431 17.326,65.085 26.928,65.085 C43.071,65.085 53.013,57.608 53.013,45.543 C53.013,36.366 46.98,30.503 35.509,28.634 Z" id="Path"></path>
                <path d="M111.307,24.046 C111.307,12.915 102.811,4.758 91.085,4.758 L59.732,4.758 L59.732,64.235 L74.346,64.235 L74.346,42.908 L91.084,42.908 C102.64,42.908 111.307,34.837 111.307,24.046 Z M89.385,30.843 L74.346,30.843 L74.346,17.248 L89.385,17.248 C93.634,17.248 96.5220003,20.052 96.5220003,24.131 C96.523,28.124 93.634,30.843 89.385,30.843 Z" id="Shape"></path>
                <path d="M128.307,4.758 L103.922,64.235 L119.131,64.235 L124.654,49.875 L147.85,49.875 L153.288,64.235 L169.092,64.235 L145.046,4.758 L128.307,4.758 Z M129.072,38.235 L136.379,19.202 L143.516,38.235 L129.072,38.235 Z" id="Shape"></path>
                <path d="M198.583,36.79 L189.661,35.431 C185.837,34.836 184.393,33.902 184.393,32.032 C184.393,30.078 186.687,28.803 190.256,28.803 C194.674,28.803 199.008,30.078 203.851,32.882 L210.393,24.045 C204.785,20.476 198.158,18.607 191.616,18.607 C179.551,18.607 172.243,24.13 172.243,33.221 C172.243,40.613 177.086,45.286 186.008,46.646 L194.93,48.006 C198.074,48.516 199.518,49.535 199.518,51.235 C199.518,53.444 196.629,54.803 192.126,54.803 C187.537,54.803 183.204,53.359 177.512,49.96 L170.97,59.221 C176.238,63.045 183.715,65.084 192.212,65.084 C203.852,65.084 212.433,58.627 212.433,49.875 C212.432,42.823 207.42,38.065 198.583,36.79 Z" id="Path"></path>
                <path d="M243.536,18.438 C238.947,18.438 234.784,19.798 231.471,22.347 L231.471,1.785 L217.706,4.758 L217.706,64.235 L231.471,64.235 L231.471,33.817 C233.34,31.523 236.059,30.248 239.543,30.248 C244.471,30.248 247.7,33.478 247.7,38.406 L247.7,64.236 L261.465,64.236 L261.465,36.536 C261.464,25.915 254.072,18.438 243.536,18.438 Z" id="Path"></path>
                <path d="M276.51,0 C272.346,0 268.947,3.399 268.947,7.562 C268.947,11.726 272.346,15.124 276.51,15.124 C280.673,15.124 284.072,11.726 284.072,7.562 C284.072,3.399 280.673,0 276.51,0 Z" id="Path"></path>
                <rect id="Rectangle" x="269.627" y="19.288" width="13.765" height="44.947"></rect>
                <path d="M317.552,18.693 C313.134,18.693 308.969,20.052 305.487,22.602 L305.487,19.288 L291.891,19.288 L291.891,82.163 L305.655,82.163 L305.655,61.856 C309.054,63.811 312.963,64.83 317.126,64.83 C330.211,64.83 340.491,54.719 340.491,41.804 C340.491,28.889 330.382,18.693 317.552,18.693 Z M315.172,53.189 C311.433,53.189 308.034,51.915 305.654,49.706 L305.654,33.987 C308.119,31.608 311.347,30.418 315.172,30.418 C321.8,30.418 326.982,35.346 326.982,41.804 C326.982,48.262 321.885,53.189 315.172,53.189 Z" id="Shape"></path>
                <polygon id="Path" points="429.92 41.081 429.92 41.08 410.339 21.499 394.718 5.877 384.296 16.299 394.653 26.655 400.176 32.178 409.08 41.082 400.177 49.986 394.654 55.508 384.298 65.865 394.719 76.286 429.922 41.083 429.921 41.082"></polygon>
            </g>
        </g>
    </g>
</svg>
